<svg width="24" height="24" viewBox="0 0 24 24" fill="none" xmlns="http://www.w3.org/2000/svg">
<g id="Iconly/Light-Outline/Arrow - Right Square">
<g id="Arrow - Right Square">
<path id="Fill 1" fill-rule="evenodd" clip-rule="evenodd" d="M7.916 3.5C5.233 3.5 3.5 5.135 3.5 7.665V16.334C3.5 18.864 5.233 20.5 7.916 20.5H16.084C18.767 20.5 20.5 18.864 20.5 16.334V7.665C20.5 5.135 18.767 3.5 16.084 3.5H7.916ZM16.084 22H7.916C4.378 22 2 19.723 2 16.334V7.665C2 4.276 4.378 2 7.916 2H16.084C19.622 2 22 4.276 22 7.665V16.334C22 19.723 19.622 22 16.084 22Z" fill="black"/>
<path id="Fill 3" fill-rule="evenodd" clip-rule="evenodd" d="M16.0859 12.75H7.91394C7.49994 12.75 7.16394 12.414 7.16394 12C7.16394 11.586 7.49994 11.25 7.91394 11.25H16.0859C16.4999 11.25 16.8359 11.586 16.8359 12C16.8359 12.414 16.4999 12.75 16.0859 12.75Z" fill="black"/>
<path id="Fill 5" fill-rule="evenodd" clip-rule="evenodd" d="M12.3223 16.4979C12.1303 16.4979 11.9373 16.4249 11.7913 16.2769C11.4993 15.9829 11.5003 15.5089 11.7933 15.2169L15.0233 11.9999L11.7933 8.78295C11.5003 8.49095 11.4993 8.01695 11.7913 7.72295C12.0833 7.42895 12.5573 7.42895 12.8513 7.72095L16.6153 11.4689C16.7573 11.6089 16.8363 11.8009 16.8363 11.9999C16.8363 12.1989 16.7573 12.3909 16.6153 12.5309L12.8513 16.2789C12.7053 16.4249 12.5133 16.4979 12.3223 16.4979Z" fill="black"/>
</g>
</g>
</svg>
