<svg width="24" height="24" viewBox="0 0 24 24" fill="none" xmlns="http://www.w3.org/2000/svg">
<g id="Iconly/Light-Outline/Arrow - Right 3">
<g id="Arrow - Right 3">
<path id="Fill 1" fill-rule="evenodd" clip-rule="evenodd" d="M12.7002 13.5004H3.75024C3.33624 13.5004 3.00024 13.1644 3.00024 12.7504C3.00024 12.3364 3.33624 12.0004 3.75024 12.0004H12.7002C13.1142 12.0004 13.4502 12.3364 13.4502 12.7504C13.4502 13.1644 13.1142 13.5004 12.7002 13.5004Z" fill="black"/>
<g id="Group 5">
<mask id="mask0_33437_5067" style="mask-type:luminance" maskUnits="userSpaceOnUse" x="11" y="7" width="11" height="12">
<path id="Clip 4" fill-rule="evenodd" clip-rule="evenodd" d="M11.9502 7.00037H21.3872V18.5014H11.9502V7.00037Z" fill="white"/>
</mask>
<g mask="url(#mask0_33437_5067)">
<path id="Fill 3" fill-rule="evenodd" clip-rule="evenodd" d="M13.4502 9.10881V16.3918L19.2302 12.7508L13.4502 9.10881ZM12.7002 18.5018C12.5752 18.5018 12.4512 18.4698 12.3382 18.4078C12.0982 18.2758 11.9502 18.0248 11.9502 17.7518V7.74981C11.9502 7.47581 12.0982 7.22481 12.3382 7.09281C12.5772 6.96181 12.8702 6.96981 13.0992 7.11481L21.0372 12.1158C21.2562 12.2538 21.3872 12.4928 21.3872 12.7508C21.3872 13.0078 21.2562 13.2478 21.0372 13.3848L13.0992 18.3858C12.9782 18.4628 12.8392 18.5018 12.7002 18.5018Z" fill="black"/>
</g>
</g>
</g>
</g>
</svg>
