<svg width="24" height="24" viewBox="0 0 24 24" fill="none" xmlns="http://www.w3.org/2000/svg">
<g id="Iconly/Light-Outline/Arrow - Left Square">
<g id="Arrow - Left Square">
<path id="Fill 1" fill-rule="evenodd" clip-rule="evenodd" d="M16.084 3.5C18.767 3.5 20.5 5.135 20.5 7.665V16.334C20.5 18.864 18.767 20.5 16.084 20.5H7.916C5.233 20.5 3.5 18.864 3.5 16.334V7.665C3.5 5.135 5.233 3.5 7.916 3.5H16.084ZM7.916 22H16.084C19.622 22 22 19.723 22 16.334V7.665C22 4.276 19.622 2 16.084 2H7.916C4.378 2 2 4.276 2 7.665V16.334C2 19.723 4.378 22 7.916 22Z" fill="black"/>
<path id="Fill 3" fill-rule="evenodd" clip-rule="evenodd" d="M7.91406 12.75H16.0861C16.5001 12.75 16.8361 12.414 16.8361 12C16.8361 11.586 16.5001 11.25 16.0861 11.25H7.91406C7.50006 11.25 7.16406 11.586 7.16406 12C7.16406 12.414 7.50006 12.75 7.91406 12.75Z" fill="black"/>
<path id="Fill 5" fill-rule="evenodd" clip-rule="evenodd" d="M11.6777 16.4979C11.8697 16.4979 12.0627 16.4249 12.2087 16.2769C12.5007 15.9829 12.4997 15.5089 12.2067 15.2169L8.97675 11.9999L12.2067 8.78295C12.4997 8.49095 12.5007 8.01695 12.2087 7.72295C11.9167 7.42895 11.4427 7.42895 11.1487 7.72095L7.38475 11.4689C7.24275 11.6089 7.16375 11.8009 7.16375 11.9999C7.16375 12.1989 7.24275 12.3909 7.38475 12.5309L11.1487 16.2789C11.2947 16.4249 11.4867 16.4979 11.6777 16.4979Z" fill="black"/>
</g>
</g>
</svg>
