<svg width="24" height="24" viewBox="0 0 24 24" fill="none" xmlns="http://www.w3.org/2000/svg">
<g id="Iconly/Light-Outline/Arrow - Up Square">
<g id="Arrow - Up Square">
<path id="Fill 1" fill-rule="evenodd" clip-rule="evenodd" d="M7.666 20.5C5.136 20.5 3.5 18.767 3.5 16.084V7.916C3.5 5.233 5.136 3.5 7.666 3.5H16.335C18.865 3.5 20.5 5.233 20.5 7.916V16.084C20.5 18.767 18.865 20.5 16.335 20.5H7.666ZM16.335 2H7.666C4.277 2 2 4.378 2 7.916V16.084C2 19.622 4.277 22 7.666 22H16.335C19.724 22 22 19.622 22 16.084V7.916C22 4.378 19.724 2 16.335 2Z" fill="black"/>
<path id="Fill 3" fill-rule="evenodd" clip-rule="evenodd" d="M12 7.16406C11.586 7.16406 11.25 7.50006 11.25 7.91406V16.0861C11.25 16.5001 11.586 16.8361 12 16.8361C12.414 16.8361 12.75 16.5001 12.75 16.0861V7.91406C12.75 7.50006 12.414 7.16406 12 7.16406Z" fill="black"/>
<path id="Fill 5" fill-rule="evenodd" clip-rule="evenodd" d="M11.9999 7.16311C11.801 7.16311 11.6089 7.24211 11.4689 7.38411L7.72095 11.1481C7.42795 11.4421 7.42995 11.9171 7.72295 12.2091C8.01695 12.5001 8.49095 12.5021 8.78295 12.2071L11.9999 8.97611L15.2169 12.2071C15.5099 12.5021 15.9839 12.5001 16.2769 12.2091C16.57 11.9171 16.5719 11.4421 16.2789 11.1481L12.5309 7.38411C12.3909 7.24211 12.1989 7.16311 11.9999 7.16311Z" fill="black"/>
</g>
</g>
</svg>
