<svg width="24" height="24" viewBox="0 0 24 24" fill="none" xmlns="http://www.w3.org/2000/svg">
<g id="Iconly/Light-Outline/Arrow - Down">
<g id="Arrow - Down">
<path id="Stroke 1" d="M12.2744 4C12.6541 4 12.9679 4.28215 13.0176 4.64823L13.0244 4.75V19.75C13.0244 20.1642 12.6886 20.5 12.2744 20.5C11.8947 20.5 11.5809 20.2178 11.5313 19.8518L11.5244 19.75V4.75C11.5244 4.33579 11.8602 4 12.2744 4Z" fill="black"/>
<path id="Stroke 3" d="M17.7673 13.171C18.0595 12.8775 18.5344 12.8765 18.8279 13.1687C19.0948 13.4344 19.1199 13.851 18.9027 14.1451L18.8302 14.2294L12.8062 20.2794C12.5397 20.547 12.1216 20.5714 11.8276 20.3524L11.7433 20.2794L5.71833 14.2294C5.42604 13.9359 5.42703 13.4611 5.72052 13.1688C5.98734 12.9031 6.40406 12.8797 6.69721 13.0982L6.78118 13.171L12.2751 18.687L17.7673 13.171Z" fill="black"/>
</g>
</g>
</svg>
