<svg width="24" height="24" viewBox="0 0 24 24" fill="none" xmlns="http://www.w3.org/2000/svg">
<g id="Iconly/Light-Outline/Arrow - Left Circle">
<g id="Arrow - Left Circle">
<path id="Fill 1" fill-rule="evenodd" clip-rule="evenodd" d="M12 3.5C7.313 3.5 3.5 7.313 3.5 12C3.5 16.687 7.313 20.5 12 20.5C16.687 20.5 20.5 16.687 20.5 12C20.5 7.313 16.687 3.5 12 3.5ZM12 22C6.486 22 2 17.514 2 12C2 6.486 6.486 2 12 2C17.514 2 22 6.486 22 12C22 17.514 17.514 22 12 22Z" fill="black"/>
<path id="Fill 3" fill-rule="evenodd" clip-rule="evenodd" d="M13.4424 16.2207C13.2514 16.2207 13.0594 16.1477 12.9134 16.0017L9.42642 12.5317C9.28542 12.3907 9.20642 12.1997 9.20642 11.9997C9.20642 11.8007 9.28542 11.6097 9.42642 11.4687L12.9134 7.99768C13.2064 7.70568 13.6804 7.70568 13.9734 7.99968C14.2664 8.29368 14.2644 8.76868 13.9714 9.06068L11.0194 11.9997L13.9714 14.9397C14.2644 15.2317 14.2664 15.7057 13.9734 15.9997C13.8274 16.1477 13.6344 16.2207 13.4424 16.2207Z" fill="black"/>
</g>
</g>
</svg>
