<svg width="24" height="24" viewBox="0 0 24 24" fill="none" xmlns="http://www.w3.org/2000/svg">
<g id="Iconly/Light-Outline/Arrow - Up">
<g id="Arrow - Up">
<path id="Stroke 1" d="M11.7256 20C11.3459 20 11.0321 19.7178 10.9824 19.3518L10.9756 19.25L10.9756 4.25C10.9756 3.83579 11.3114 3.5 11.7256 3.5C12.1053 3.5 12.4191 3.78215 12.4687 4.14823L12.4756 4.25L12.4756 19.25C12.4756 19.6642 12.1398 20 11.7256 20Z" fill="black"/>
<path id="Stroke 3" d="M6.23271 10.829C5.94045 11.1225 5.46558 11.1235 5.17206 10.8313C4.90522 10.5656 4.88012 10.149 5.09734 9.85489L5.16977 9.77062L11.1938 3.72062C11.4603 3.45298 11.8784 3.42863 12.1724 3.64759L12.2567 3.72057L18.2817 9.77057C18.574 10.0641 18.573 10.5389 18.2795 10.8312C18.0127 11.0969 17.5959 11.1203 17.3028 10.9018L17.2188 10.829L11.7249 5.313L6.23271 10.829Z" fill="black"/>
</g>
</g>
</svg>
