<svg width="24" height="24" viewBox="0 0 24 24" fill="none" xmlns="http://www.w3.org/2000/svg">
<g id="Iconly/Light-Outline/Arrow - Down Square">
<g id="Arrow - Down Square">
<path id="Fill 1" fill-rule="evenodd" clip-rule="evenodd" d="M7.666 3.5C5.136 3.5 3.5 5.233 3.5 7.916V16.084C3.5 18.767 5.136 20.5 7.666 20.5H16.335C18.865 20.5 20.5 18.767 20.5 16.084V7.916C20.5 5.233 18.865 3.5 16.335 3.5H7.666ZM16.335 22H7.666C4.277 22 2 19.622 2 16.084V7.916C2 4.378 4.277 2 7.666 2H16.335C19.724 2 22 4.378 22 7.916V16.084C22 19.622 19.724 22 16.335 22Z" fill="black"/>
<path id="Fill 3" fill-rule="evenodd" clip-rule="evenodd" d="M12 16.8359C11.586 16.8359 11.25 16.4999 11.25 16.0859V7.91394C11.25 7.49994 11.586 7.16394 12 7.16394C12.414 7.16394 12.75 7.49994 12.75 7.91394V16.0859C12.75 16.4999 12.414 16.8359 12 16.8359Z" fill="black"/>
<path id="Fill 5" fill-rule="evenodd" clip-rule="evenodd" d="M11.9999 16.8369C11.801 16.8369 11.6089 16.7579 11.4689 16.6159L7.72095 12.8519C7.42795 12.5579 7.42995 12.0829 7.72295 11.7909C8.01695 11.4999 8.49095 11.4979 8.78295 11.7929L11.9999 15.0239L15.2169 11.7929C15.5099 11.4979 15.9839 11.4999 16.2769 11.7909C16.57 12.0829 16.5719 12.5579 16.2789 12.8519L12.5309 16.6159C12.3909 16.7579 12.1989 16.8369 11.9999 16.8369Z" fill="black"/>
</g>
</g>
</svg>
