<svg width="24" height="24" viewBox="0 0 24 24" fill="none" xmlns="http://www.w3.org/2000/svg">
<g id="Iconly/Light-Outline/Add User">
<g id="Add User">
<g id="Group 3">
<mask id="mask0_33437_4611" style="mask-type:luminance" maskUnits="userSpaceOnUse" x="2" y="14" width="16" height="8">
<path id="Clip 2" fill-rule="evenodd" clip-rule="evenodd" d="M2 14.4561H17.754V21.795H2V14.4561Z" fill="white"/>
</mask>
<g mask="url(#mask0_33437_4611)">
<path id="Fill 1" fill-rule="evenodd" clip-rule="evenodd" d="M9.877 15.9561C5.646 15.9561 3.5 16.6831 3.5 18.1151C3.5 19.5611 5.646 20.2951 9.877 20.2951C14.108 20.2951 16.254 19.5681 16.254 18.1371C16.254 16.6891 14.108 15.9561 9.877 15.9561ZM9.877 21.7951C7.929 21.7951 2 21.7951 2 18.1151C2 14.8351 6.495 14.4561 9.877 14.4561C11.825 14.4561 17.754 14.4561 17.754 18.1371C17.754 21.4161 13.259 21.7951 9.877 21.7951Z" fill="black"/>
</g>
</g>
<path id="Fill 4" fill-rule="evenodd" clip-rule="evenodd" d="M9.87697 3.5C7.77297 3.5 6.05997 5.213 6.05997 7.318C6.05597 8.337 6.44797 9.292 7.16297 10.013C7.87897 10.733 8.83297 11.132 9.84897 11.136L9.87697 11.886V11.136C11.982 11.136 13.695 9.423 13.695 7.318C13.695 5.213 11.982 3.5 9.87697 3.5ZM9.87697 12.636H9.84597C8.42697 12.631 7.09697 12.074 6.09997 11.07C5.10197 10.065 4.55497 8.731 4.55997 7.315C4.55997 4.386 6.94497 2 9.87697 2C12.81 2 15.195 4.386 15.195 7.318C15.195 10.25 12.81 12.636 9.87697 12.636Z" fill="black"/>
<path id="Fill 6" fill-rule="evenodd" clip-rule="evenodd" d="M19.2041 13.4297C18.7901 13.4297 18.4541 13.0937 18.4541 12.6797V8.6687C18.4541 8.2547 18.7901 7.9187 19.2041 7.9187C19.6181 7.9187 19.9541 8.2547 19.9541 8.6687V12.6797C19.9541 13.0937 19.6181 13.4297 19.2041 13.4297Z" fill="black"/>
<path id="Fill 8" fill-rule="evenodd" clip-rule="evenodd" d="M21.25 11.4238H17.16C16.746 11.4238 16.41 11.0878 16.41 10.6738C16.41 10.2598 16.746 9.92383 17.16 9.92383H21.25C21.664 9.92383 22 10.2598 22 10.6738C22 11.0878 21.664 11.4238 21.25 11.4238Z" fill="black"/>
</g>
</g>
</svg>
