<svg width="24" height="24" viewBox="0 0 24 24" fill="none" xmlns="http://www.w3.org/2000/svg">
<g id="Iconly/Light-Outline/Arrow - Up 3">
<g id="Arrow - Up 3">
<path id="Fill 1" fill-rule="evenodd" clip-rule="evenodd" d="M11.7511 11.5498C11.3371 11.5498 11.0011 11.8858 11.0011 12.2998V21.2498C11.0011 21.6638 11.3371 21.9998 11.7511 21.9998C12.1651 21.9998 12.5011 21.6638 12.5011 21.2498V12.2998C12.5011 11.8858 12.1651 11.5498 11.7511 11.5498Z" fill="black"/>
<g id="Group 5">
<mask id="mask0_33437_5095" style="mask-type:luminance" maskUnits="userSpaceOnUse" x="6" y="3" width="12" height="11">
<path id="Clip 4" fill-rule="evenodd" clip-rule="evenodd" d="M6 13.0498H17.502V3.61331H6V13.0498Z" fill="white"/>
</mask>
<g mask="url(#mask0_33437_5095)">
<path id="Fill 3" fill-rule="evenodd" clip-rule="evenodd" d="M8.10955 11.5498L11.7516 5.7708L15.3926 11.5498H8.10955ZM11.7516 3.6128C11.4936 3.6128 11.2546 3.7448 11.1166 3.9638L6.11555 11.9008C5.96955 12.1308 5.96155 12.4228 6.09355 12.6618C6.22555 12.9018 6.47655 13.0498 6.75055 13.0498H16.7526C17.0256 13.0498 17.2766 12.9018 17.4086 12.6618C17.5416 12.4228 17.5326 12.1308 17.3866 11.9008L12.3856 3.9638C12.2486 3.7448 12.0086 3.6128 11.7516 3.6128Z" fill="black"/>
</g>
</g>
</g>
</g>
</svg>
