<svg width="24" height="24" viewBox="0 0 24 24" fill="none" xmlns="http://www.w3.org/2000/svg">
<g id="Iconly/Light-Outline/Arrow - Left 3">
<g id="Arrow - Left 3">
<path id="Fill 1" fill-rule="evenodd" clip-rule="evenodd" d="M12.2998 13.5004H21.2498C21.6638 13.5004 21.9998 13.1644 21.9998 12.7504C21.9998 12.3364 21.6638 12.0004 21.2498 12.0004H12.2998C11.8858 12.0004 11.5498 12.3364 11.5498 12.7504C11.5498 13.1644 11.8858 13.5004 12.2998 13.5004Z" fill="black"/>
<g id="Group 5">
<mask id="mask0_33437_5123" style="mask-type:luminance" maskUnits="userSpaceOnUse" x="3" y="7" width="11" height="12">
<path id="Clip 4" fill-rule="evenodd" clip-rule="evenodd" d="M13.0498 7.00037H3.6128V18.5014H13.0498V7.00037Z" fill="white"/>
</mask>
<g mask="url(#mask0_33437_5123)">
<path id="Fill 3" fill-rule="evenodd" clip-rule="evenodd" d="M11.5498 9.10881V16.3918L5.7698 12.7508L11.5498 9.10881ZM12.2998 18.5018C12.4248 18.5018 12.5488 18.4698 12.6618 18.4078C12.9018 18.2758 13.0498 18.0248 13.0498 17.7518V7.74981C13.0498 7.47581 12.9018 7.22481 12.6618 7.09281C12.4228 6.96181 12.1298 6.96981 11.9008 7.11481L3.9628 12.1158C3.7438 12.2538 3.6128 12.4928 3.6128 12.7508C3.6128 13.0078 3.7438 13.2478 3.9628 13.3848L11.9008 18.3858C12.0218 18.4628 12.1608 18.5018 12.2998 18.5018Z" fill="black"/>
</g>
</g>
</g>
</g>
</svg>
