<svg width="24" height="24" viewBox="0 0 24 24" fill="none" xmlns="http://www.w3.org/2000/svg">
<g id="Iconly/Light-Outline/Bag 3">
<g id="Bag 2">
<g id="Group 3">
<mask id="mask0_33437_4955" style="mask-type:luminance" maskUnits="userSpaceOnUse" x="7" y="2" width="10" height="9">
<path id="Clip 2" fill-rule="evenodd" clip-rule="evenodd" d="M7.21094 2H16.2729V10.3057H7.21094V2Z" fill="white"/>
</mask>
<g mask="url(#mask0_33437_4955)">
<path id="Fill 1" fill-rule="evenodd" clip-rule="evenodd" d="M15.5229 10.3058C15.1089 10.3058 14.7729 9.96976 14.7729 9.55576V6.52376C14.7729 4.85676 13.4179 3.49976 11.7509 3.49976C10.9399 3.52776 10.1799 3.80776 9.60594 4.37576C9.03194 4.94476 8.71394 5.70176 8.71094 6.50876V9.55576C8.71094 9.96976 8.37494 10.3058 7.96094 10.3058C7.54694 10.3058 7.21094 9.96976 7.21094 9.55576V6.52376C7.21594 5.29476 7.69094 4.16076 8.54994 3.31076C9.40794 2.45976 10.5599 2.03476 11.7539 1.99976C14.2449 1.99976 16.2729 4.02976 16.2729 6.52376V9.55576C16.2729 9.96976 15.9369 10.3058 15.5229 10.3058Z" fill="black"/>
</g>
</g>
<g id="Group 6">
<mask id="mask1_33437_4955" style="mask-type:luminance" maskUnits="userSpaceOnUse" x="2" y="6" width="20" height="16">
<path id="Clip 5" fill-rule="evenodd" clip-rule="evenodd" d="M2 6.47461H21.4998V21.9996H2V6.47461Z" fill="white"/>
</mask>
<g mask="url(#mask1_33437_4955)">
<path id="Fill 4" fill-rule="evenodd" clip-rule="evenodd" d="M7.00776 7.97461C5.07376 7.97461 3.49976 9.54661 3.49976 11.4796V16.9956C3.49976 18.9276 5.07376 20.4996 7.00776 20.4996H16.4918C18.4258 20.4996 19.9998 18.9276 19.9998 16.9956V11.4796C19.9998 9.54661 18.4258 7.97461 16.4918 7.97461H7.00776ZM16.4918 21.9996H7.00776C4.24676 21.9996 1.99976 19.7546 1.99976 16.9956V11.4796C1.99976 8.71961 4.24676 6.47461 7.00776 6.47461H16.4918C19.2538 6.47461 21.4998 8.71961 21.4998 11.4796V16.9956C21.4998 19.7546 19.2538 21.9996 16.4918 21.9996Z" fill="black"/>
</g>
</g>
</g>
</g>
</svg>
