<svg width="24" height="24" viewBox="0 0 24 24" fill="none" xmlns="http://www.w3.org/2000/svg">
<g id="Iconly/Light-Outline/Bag">
<g id="Bag">
<g id="Group 3">
<mask id="mask0_33437_4941" style="mask-type:luminance" maskUnits="userSpaceOnUse" x="2" y="6" width="20" height="17">
<path id="Clip 2" fill-rule="evenodd" clip-rule="evenodd" d="M2 6.54004H21.5859V22.7216H2V6.54004Z" fill="white"/>
</mask>
<g mask="url(#mask0_33437_4941)">
<path id="Fill 1" fill-rule="evenodd" clip-rule="evenodd" d="M6.71553 8.04004C6.27453 8.04004 4.80053 8.21804 4.37753 10.502L3.60553 16.502C3.35453 18.185 3.54853 19.403 4.18353 20.14C4.81053 20.868 5.93253 21.222 7.61253 21.222H15.9605C17.0085 21.222 18.4395 21.013 19.3035 20.015C19.9895 19.224 20.2255 18.046 20.0055 16.513L19.2265 10.461C18.8945 8.97004 18.0185 8.04004 16.8945 8.04004H6.71553ZM15.9605 22.722H7.61253C5.46953 22.722 3.97653 22.197 3.04753 21.118C2.11453 20.036 1.80253 18.413 2.12053 16.295L2.89653 10.269C3.40653 7.50604 5.27153 6.54004 6.71553 6.54004H16.8945C18.3445 6.54004 20.1075 7.50304 20.7025 10.204L21.4915 16.311C21.7745 18.282 21.4205 19.863 20.4375 20.997C19.4595 22.125 17.9115 22.722 15.9605 22.722Z" fill="black"/>
</g>
</g>
<path id="Fill 4" fill-rule="evenodd" clip-rule="evenodd" d="M16.0977 7.82024C15.6837 7.82024 15.3477 7.48424 15.3477 7.07024C15.3477 5.10124 13.7457 3.50024 11.7777 3.50024H11.7627C10.8217 3.50024 9.90472 3.87924 9.23972 4.54024C8.57172 5.20524 8.18872 6.12824 8.18872 7.07024C8.18872 7.48424 7.85272 7.82024 7.43872 7.82024C7.02472 7.82024 6.68872 7.48424 6.68872 7.07024C6.68872 5.73124 7.23272 4.42224 8.18072 3.47724C9.12572 2.53824 10.4287 2.00024 11.7597 2.00024H11.7807C14.5737 2.00024 16.8477 4.27424 16.8477 7.07024C16.8477 7.48424 16.5117 7.82024 16.0977 7.82024Z" fill="black"/>
<path id="Fill 6" fill-rule="evenodd" clip-rule="evenodd" d="M14.7433 12.3241H14.6973C14.2833 12.3241 13.9473 11.9881 13.9473 11.5741C13.9473 11.1601 14.2833 10.8241 14.6973 10.8241C15.1113 10.8241 15.4703 11.1601 15.4703 11.5741C15.4703 11.9881 15.1573 12.3241 14.7433 12.3241Z" fill="black"/>
<path id="Fill 8" fill-rule="evenodd" clip-rule="evenodd" d="M8.91219 12.3241H8.86719C8.45319 12.3241 8.11719 11.9881 8.11719 11.5741C8.11719 11.1601 8.45319 10.8241 8.86719 10.8241C9.28119 10.8241 9.64019 11.1601 9.64019 11.5741C9.64019 11.9881 9.32619 12.3241 8.91219 12.3241Z" fill="black"/>
</g>
</g>
</svg>
