<svg width="24" height="24" viewBox="0 0 24 24" fill="none" xmlns="http://www.w3.org/2000/svg">
<g id="Iconly/Light-Outline/Call Missed">
<g id="Call Missed">
<path id="Stroke 1" d="M20.7846 3.21955C21.0775 2.92665 21.5524 2.92665 21.8453 3.21955C22.1115 3.48581 22.1357 3.90248 21.9179 4.19609L21.8453 4.28021L15.8453 10.2802C15.5524 10.5731 15.0775 10.5731 14.7846 10.2802C14.5183 10.0139 14.4941 9.59728 14.712 9.30367L14.7846 9.21955L20.7846 3.21955Z" fill="black"/>
<path id="Stroke 3" d="M14.7846 3.21955C15.0509 2.95328 15.4675 2.92908 15.7612 3.14693L15.8453 3.21955L21.8453 9.21955C22.1382 9.51244 22.1382 9.98731 21.8453 10.2802C21.579 10.5465 21.1623 10.5707 20.8687 10.3528L20.7846 10.2802L14.7846 4.28021C14.4917 3.98731 14.4917 3.51244 14.7846 3.21955Z" fill="black"/>
<path id="Stroke 5" fill-rule="evenodd" clip-rule="evenodd" d="M2.47109 3.82943L2.54364 3.75361C4.47106 1.82602 5.72622 1.31509 7.06544 2.0852C7.45067 2.30673 7.81183 2.61681 8.30291 3.11559L9.80929 4.67761C10.6413 5.58551 10.8305 6.45636 10.5595 7.47623L10.5222 7.61125L10.4808 7.7455L10.2794 8.33632C9.8484 9.6613 10.0283 10.4089 11.5618 11.942C13.1565 13.5363 13.9009 13.6667 15.3281 13.168L15.5825 13.0795L15.89 12.9797L16.0247 12.9423C17.1087 12.6531 18.0244 12.8839 18.9956 13.8544L20.2093 15.0268L20.5666 15.3782C20.9627 15.7821 21.2245 16.1022 21.4179 16.4405C22.1832 17.7793 21.6717 19.0337 19.6887 21.0093L19.5 21.2005C19.204 21.4858 18.9274 21.6902 18.521 21.8832C17.8388 22.207 17.033 22.3291 16.0966 22.1989C13.7891 21.878 10.8625 20.0574 7.15425 16.35C6.85239 16.0482 6.56327 15.7523 6.28662 15.4621L5.74985 14.8892C0.719996 9.42442 0.276261 6.06746 2.33755 3.96208L2.47109 3.82943ZM7.08879 4.0225C6.76299 3.70131 6.52633 3.50551 6.31769 3.38553C5.85616 3.12014 5.35787 3.23232 4.43567 4.02605L4.1459 4.28492C4.09536 4.33158 4.04366 4.38001 3.99075 4.43026L3.65848 4.75389L3.62854 4.7913L3.40328 5.01761C2.85893 5.57362 2.60108 6.25221 2.82328 7.41925C3.18788 9.33427 4.85679 11.9321 8.21478 15.2892C11.7137 18.7872 14.3795 20.4457 16.3032 20.7132C17.4246 20.8692 17.9966 20.5976 18.5799 20L19.0248 19.551C19.2334 19.3328 19.4116 19.1349 19.5621 18.9542L19.7674 18.6955C20.2921 17.9966 20.34 17.5774 20.1156 17.1849C20.0302 17.0355 19.906 16.8717 19.7253 16.6716L19.48 16.4126L19.3349 16.2674L17.8036 14.7888C17.2919 14.3169 16.9423 14.25 16.4113 14.3916L16.2581 14.4357L15.6238 14.651C13.7837 15.2453 12.4562 14.9571 10.5013 13.0028C8.47667 10.9786 8.23922 9.62695 8.91759 7.68075L8.96111 7.55569L9.08145 7.19311L9.14061 6.96201C9.24551 6.45904 9.12574 6.10835 8.58507 5.56758C8.5628 5.54532 8.53792 5.52024 8.51085 5.49278L7.08879 4.0225Z" fill="black"/>
</g>
</g>
</svg>
