<svg width="24" height="24" viewBox="0 0 24 24" fill="none" xmlns="http://www.w3.org/2000/svg">
<g id="Iconly/Light-Outline/Document">
<g id="Document">
<path id="Fill 1" fill-rule="evenodd" clip-rule="evenodd" d="M15.7158 16.9738H8.49585C8.08185 16.9738 7.74585 16.6378 7.74585 16.2238C7.74585 15.8098 8.08185 15.4738 8.49585 15.4738H15.7158C16.1298 15.4738 16.4658 15.8098 16.4658 16.2238C16.4658 16.6378 16.1298 16.9738 15.7158 16.9738Z" fill="black"/>
<path id="Fill 3" fill-rule="evenodd" clip-rule="evenodd" d="M15.7158 12.7872H8.49585C8.08185 12.7872 7.74585 12.4512 7.74585 12.0372C7.74585 11.6232 8.08185 11.2872 8.49585 11.2872H15.7158C16.1298 11.2872 16.4658 11.6232 16.4658 12.0372C16.4658 12.4512 16.1298 12.7872 15.7158 12.7872Z" fill="black"/>
<path id="Fill 5" fill-rule="evenodd" clip-rule="evenodd" d="M11.2506 8.61047H8.49561C8.08161 8.61047 7.74561 8.27447 7.74561 7.86047C7.74561 7.44647 8.08161 7.11047 8.49561 7.11047H11.2506C11.6646 7.11047 12.0006 7.44647 12.0006 7.86047C12.0006 8.27447 11.6646 8.61047 11.2506 8.61047Z" fill="black"/>
<g id="Group 9">
<mask id="mask0_33437_4997" style="mask-type:luminance" maskUnits="userSpaceOnUse" x="3" y="2" width="19" height="20">
<path id="Clip 8" fill-rule="evenodd" clip-rule="evenodd" d="M3 2.00024H21.1647V21.91H3V2.00024Z" fill="white"/>
</mask>
<g mask="url(#mask0_33437_4997)">
<path id="Fill 7" fill-rule="evenodd" clip-rule="evenodd" d="M15.9088 3.5L8.21976 3.504C5.89176 3.518 4.49976 4.958 4.49976 7.357V16.553C4.49976 18.968 5.90476 20.41 8.25576 20.41L15.9448 20.407C18.2728 20.393 19.6648 18.951 19.6648 16.553V7.357C19.6648 4.942 18.2608 3.5 15.9088 3.5ZM8.25676 21.91C5.11276 21.91 2.99976 19.757 2.99976 16.553V7.357C2.99976 4.124 5.04676 2.023 8.21476 2.004L15.9078 2H15.9088C19.0528 2 21.1648 4.153 21.1648 7.357V16.553C21.1648 19.785 19.1178 21.887 15.9498 21.907L8.25676 21.91Z" fill="black"/>
</g>
</g>
</g>
</g>
</svg>
