<svg width="24" height="24" viewBox="0 0 24 24" fill="none" xmlns="http://www.w3.org/2000/svg">
<g id="Iconly/Light-Outline/Download">
<g id="Download">
<path id="Fill 1" fill-rule="evenodd" clip-rule="evenodd" d="M12.0011 16.5411C11.5871 16.5411 11.2511 16.2051 11.2511 15.7911V3.75012C11.2511 3.33612 11.5871 3.00012 12.0011 3.00012C12.4151 3.00012 12.7511 3.33612 12.7511 3.75012V15.7911C12.7511 16.2051 12.4151 16.5411 12.0011 16.5411Z" fill="black"/>
<path id="Fill 3" fill-rule="evenodd" clip-rule="evenodd" d="M12.0011 16.5412C11.8021 16.5412 11.6101 16.4622 11.4701 16.3202L8.55407 13.3932C8.26207 13.0992 8.26307 12.6242 8.55607 12.3322C8.85007 12.0402 9.32407 12.0402 9.61607 12.3342L12.0011 14.7292L14.3861 12.3342C14.6781 12.0402 15.1521 12.0402 15.4461 12.3322C15.7391 12.6242 15.7401 13.0992 15.4481 13.3932L12.5321 16.3202C12.3921 16.4622 12.2001 16.5412 12.0011 16.5412Z" fill="black"/>
<g id="Group 7">
<mask id="mask0_33437_4741" style="mask-type:luminance" maskUnits="userSpaceOnUse" x="2" y="7" width="20" height="15">
<path id="Clip 6" fill-rule="evenodd" clip-rule="evenodd" d="M2.00024 7.73267H22V21.4767H2.00024V7.73267Z" fill="white"/>
</mask>
<g mask="url(#mask0_33437_4741)">
<path id="Fill 5" fill-rule="evenodd" clip-rule="evenodd" d="M17.5752 21.4767H6.43524C3.99024 21.4767 2.00024 19.4877 2.00024 17.0417V12.1567C2.00024 9.71667 3.98524 7.73267 6.42624 7.73267H7.36724C7.78124 7.73267 8.11724 8.06867 8.11724 8.48267C8.11724 8.89667 7.78124 9.23267 7.36724 9.23267H6.42624C4.81224 9.23267 3.50024 10.5437 3.50024 12.1567V17.0417C3.50024 18.6607 4.81624 19.9767 6.43524 19.9767H17.5752C19.1872 19.9767 20.5002 18.6637 20.5002 17.0517V12.1677C20.5002 10.5487 19.1832 9.23267 17.5662 9.23267H16.6342C16.2202 9.23267 15.8842 8.89667 15.8842 8.48267C15.8842 8.06867 16.2202 7.73267 16.6342 7.73267H17.5662C20.0112 7.73267 22.0002 9.72267 22.0002 12.1677V17.0517C22.0002 19.4917 20.0142 21.4767 17.5752 21.4767Z" fill="black"/>
</g>
</g>
</g>
</g>
</svg>
