<svg width="24" height="24" viewBox="0 0 24 24" fill="none" xmlns="http://www.w3.org/2000/svg">
<g id="Iconly/Light-Outline/Filter 3">
<g id="Filter 2">
<mask id="mask0_33437_4576" style="mask-type:luminance" maskUnits="userSpaceOnUse" x="2" y="2" width="20" height="20">
<path id="Clip 2" fill-rule="evenodd" clip-rule="evenodd" d="M2.00037 2H21.5V21.5007H2.00037V2Z" fill="white"/>
</mask>
<g mask="url(#mask0_33437_4576)">
<path id="Fill 1" fill-rule="evenodd" clip-rule="evenodd" d="M8.77337 11.5988C8.79137 11.6148 8.80837 11.6298 8.82537 11.6478C9.90437 12.7538 10.4994 14.2188 10.4994 15.7738V19.7578L12.7354 18.5398C12.9114 18.4438 13.0204 18.2558 13.0204 18.0488V15.7618C13.0204 14.2128 13.6094 12.7528 14.6784 11.6528L19.5154 6.50776C19.8284 6.17476 20.0004 5.73776 20.0004 5.27676V4.34076C20.0004 3.87676 19.6344 3.49976 19.1864 3.49976H4.31537C3.86637 3.49976 3.50037 3.87676 3.50037 4.34076V5.27676C3.50037 5.73776 3.67237 6.17476 3.98537 6.50676L8.77337 11.5988ZM10.1464 21.5008C9.94437 21.5008 9.74437 21.4468 9.56237 21.3388C9.21037 21.1288 8.99937 20.7578 8.99937 20.3458V15.7738C8.99937 14.6388 8.57637 13.5698 7.80537 12.7508C7.78237 12.7318 7.75937 12.7108 7.73937 12.6888L2.89337 7.53576C2.31737 6.92376 2.00037 6.12076 2.00037 5.27676V4.34076C2.00037 3.04976 3.03937 1.99976 4.31537 1.99976H19.1864C20.4614 1.99976 21.5004 3.04976 21.5004 4.34076V5.27676C21.5004 6.11976 21.1834 6.92176 20.6094 7.53476L15.7624 12.6888C14.9594 13.5168 14.5204 14.6058 14.5204 15.7618V18.0488C14.5204 18.8048 14.1114 19.4968 13.4534 19.8568L10.6924 21.3608C10.5204 21.4538 10.3334 21.5008 10.1464 21.5008Z" fill="black"/>
</g>
</g>
</g>
</svg>
