<svg width="24" height="24" viewBox="0 0 24 24" fill="none" xmlns="http://www.w3.org/2000/svg">
<g id="Iconly/Light-Outline/Game">
<g id="Game">
<path id="Fill 1" fill-rule="evenodd" clip-rule="evenodd" d="M8.59814 16.5596C8.18414 16.5596 7.84814 16.2236 7.84814 15.8096V12.0646C7.84814 11.6506 8.18414 11.3146 8.59814 11.3146C9.01214 11.3146 9.34814 11.6506 9.34814 12.0646V15.8096C9.34814 16.2236 9.01214 16.5596 8.59814 16.5596Z" fill="black"/>
<path id="Fill 3" fill-rule="evenodd" clip-rule="evenodd" d="M10.5087 14.6865H6.68774C6.27374 14.6865 5.93774 14.3505 5.93774 13.9365C5.93774 13.5225 6.27374 13.1865 6.68774 13.1865H10.5087C10.9227 13.1865 11.2587 13.5225 11.2587 13.9365C11.2587 14.3505 10.9227 14.6865 10.5087 14.6865Z" fill="black"/>
<path id="Fill 5" fill-rule="evenodd" clip-rule="evenodd" d="M15.1163 12.9287H15.0093C14.5953 12.9287 14.2593 12.5927 14.2593 12.1787C14.2593 11.7647 14.5953 11.4287 15.0093 11.4287H15.1163C15.5303 11.4287 15.8663 11.7647 15.8663 12.1787C15.8663 12.5927 15.5303 12.9287 15.1163 12.9287Z" fill="black"/>
<path id="Fill 7" fill-rule="evenodd" clip-rule="evenodd" d="M16.9298 16.5029H16.8228C16.4088 16.5029 16.0728 16.1669 16.0728 15.7529C16.0728 15.3389 16.4088 15.0029 16.8228 15.0029H16.9298C17.3438 15.0029 17.6798 15.3389 17.6798 15.7529C17.6798 16.1669 17.3438 16.5029 16.9298 16.5029Z" fill="black"/>
<g id="Group 11">
<mask id="mask0_33437_4927" style="mask-type:luminance" maskUnits="userSpaceOnUse" x="7" y="1" width="7" height="6">
<path id="Clip 10" fill-rule="evenodd" clip-rule="evenodd" d="M7.07178 1H13.1118V6.5879H7.07178V1Z" fill="white"/>
</mask>
<g mask="url(#mask0_33437_4927)">
<path id="Fill 9" fill-rule="evenodd" clip-rule="evenodd" d="M12.3618 6.58788C11.9478 6.58788 11.6118 6.25188 11.6118 5.83788V5.16288C11.6088 4.43888 10.9948 3.84388 10.2438 3.84088H9.18978C8.02278 3.84088 7.07178 2.90288 7.07178 1.74988C7.07178 1.33588 7.40778 0.999878 7.82178 0.999878C8.23678 0.999878 8.57178 1.33588 8.57178 1.74988C8.57178 2.07588 8.84878 2.34088 9.18978 2.34088H10.2468C11.8198 2.34588 13.1048 3.60988 13.1118 5.15888V5.83788C13.1118 6.25188 12.7758 6.58788 12.3618 6.58788Z" fill="black"/>
</g>
</g>
<g id="Group 14">
<mask id="mask1_33437_4927" style="mask-type:luminance" maskUnits="userSpaceOnUse" x="1" y="5" width="22" height="18">
<path id="Clip 13" fill-rule="evenodd" clip-rule="evenodd" d="M1.00024 5.37329H22.5V22.5H1.00024V5.37329Z" fill="white"/>
</mask>
<g mask="url(#mask1_33437_4927)">
<path id="Fill 12" fill-rule="evenodd" clip-rule="evenodd" d="M11.7012 6.87304C10.2252 6.87304 8.76724 6.88604 7.33524 6.91004C4.52824 6.91004 2.50024 8.88804 2.50024 11.612V16.262C2.50024 18.985 4.52824 20.963 7.32324 20.963C10.2702 21.012 13.2412 21.012 16.1652 20.963H16.1782C18.9722 20.963 21.0002 18.985 21.0002 16.262V11.612C21.0002 8.88804 18.9722 6.91004 16.1782 6.91004C14.6742 6.88604 13.1792 6.87304 11.7012 6.87304ZM11.7542 22.5C10.2712 22.5 8.78624 22.487 7.31024 22.463C3.65924 22.463 1.00024 19.854 1.00024 16.262V11.612C1.00024 8.01904 3.65924 5.41004 7.32324 5.41004C10.1922 5.36104 13.1802 5.36104 16.1902 5.41004C19.8412 5.41004 22.5002 8.01904 22.5002 11.612V16.262C22.5002 19.852 19.8452 22.46 16.1842 22.463C14.7162 22.487 13.2362 22.5 11.7542 22.5Z" fill="black"/>
</g>
</g>
</g>
</g>
</svg>
