<svg width="24" height="24" viewBox="0 0 24 24" fill="none" xmlns="http://www.w3.org/2000/svg">
<g id="Iconly/Light-Outline/Graph">
<g id="Graph">
<path id="Fill 1" fill-rule="evenodd" clip-rule="evenodd" d="M8.98249 6.3035C8.95049 6.3035 8.91849 6.3075 8.88649 6.3155C5.91649 7.0465 3.50049 10.2645 3.50049 13.4885C3.50049 17.5445 6.80049 20.8445 10.8575 20.8445C14.5145 20.8445 17.5705 18.2395 18.1245 14.6495C18.1285 14.6195 18.1425 14.5325 18.0605 14.4355C17.9825 14.3445 17.8585 14.2905 17.7285 14.2905C16.3175 14.2905 15.2405 14.3225 14.3995 14.3465C12.3635 14.4075 11.5215 14.4305 10.6895 13.8135C9.43549 12.8845 9.32949 11.2885 9.32949 6.5945C9.32949 6.5105 9.29349 6.4405 9.22149 6.3845C9.15449 6.3315 9.06949 6.3035 8.98249 6.3035ZM10.8575 22.3445C5.97349 22.3445 2.00049 18.3715 2.00049 13.4885C2.00049 9.6165 4.92849 5.7445 8.52749 4.8585C9.08949 4.7215 9.69349 4.8495 10.1475 5.2035C10.5805 5.5435 10.8295 6.0505 10.8295 6.5945C10.8295 10.9795 10.9775 12.1595 11.5825 12.6085C11.9795 12.9015 12.5235 12.8985 14.3565 12.8475C15.2085 12.8225 16.2995 12.7905 17.7285 12.7905C18.2985 12.7905 18.8355 13.0345 19.1995 13.4595C19.5375 13.8545 19.6855 14.3705 19.6075 14.8785C18.9395 19.2035 15.2595 22.3445 10.8575 22.3445Z" fill="black"/>
<g id="Group 5">
<mask id="mask0_33437_4338" style="mask-type:luminance" maskUnits="userSpaceOnUse" x="12" y="1" width="11" height="11">
<path id="Clip 4" fill-rule="evenodd" clip-rule="evenodd" d="M12.4741 1.00049H22.8931V11.2898H12.4741V1.00049Z" fill="white"/>
</mask>
<g mask="url(#mask0_33437_4338)">
<path id="Fill 3" fill-rule="evenodd" clip-rule="evenodd" d="M14.0109 2.50174C13.9009 5.02074 14.0639 8.27474 14.1399 9.56374C14.1439 9.64074 14.1999 9.69674 14.2759 9.70074C15.3039 9.75974 18.8459 9.92374 21.3929 9.54874C21.3989 8.14474 20.4379 6.24074 18.9909 4.79474C17.5069 3.31274 15.7509 2.50174 14.0329 2.50174H14.0109ZM17.3149 11.2897C16.0049 11.2897 14.8519 11.2367 14.1889 11.1987C13.3549 11.1497 12.6909 10.4847 12.6429 9.65074C12.5649 8.32874 12.3959 4.96974 12.5159 2.37174C12.5489 1.61674 13.1589 1.01574 13.9049 1.00274C16.0419 0.940742 18.2469 1.93274 20.0509 3.73374C21.8089 5.49074 22.9249 7.79974 22.8929 9.61674C22.8809 10.3257 22.3659 10.9177 21.6699 11.0227C20.3119 11.2277 18.7219 11.2897 17.3149 11.2897Z" fill="black"/>
</g>
</g>
</g>
</g>
</svg>
