<svg width="24" height="24" viewBox="0 0 24 24" fill="none" xmlns="http://www.w3.org/2000/svg">
<g id="Iconly/Light-Outline/More Square">
<g id="More Square">
<path id="Fill 1" fill-rule="evenodd" clip-rule="evenodd" d="M7.665 3.5C5.135 3.5 3.5 5.233 3.5 7.916V16.084C3.5 18.767 5.135 20.5 7.665 20.5H16.333C18.864 20.5 20.5 18.767 20.5 16.084V7.916C20.5 5.233 18.864 3.5 16.334 3.5H7.665ZM16.333 22H7.665C4.276 22 2 19.622 2 16.084V7.916C2 4.378 4.276 2 7.665 2H16.334C19.723 2 22 4.378 22 7.916V16.084C22 19.622 19.723 22 16.333 22Z" fill="black"/>
<path id="Fill 3" fill-rule="evenodd" clip-rule="evenodd" d="M15.9482 13.0137C15.3952 13.0137 14.9432 12.5667 14.9432 12.0137C14.9432 11.4607 15.3862 11.0137 15.9382 11.0137H15.9482C16.5012 11.0137 16.9482 11.4607 16.9482 12.0137C16.9482 12.5667 16.5012 13.0137 15.9482 13.0137Z" fill="black"/>
<path id="Fill 5" fill-rule="evenodd" clip-rule="evenodd" d="M11.9384 13.0137C11.3854 13.0137 10.9344 12.5667 10.9344 12.0137C10.9344 11.4607 11.3764 11.0137 11.9294 11.0137H11.9384C12.4914 11.0137 12.9384 11.4607 12.9384 12.0137C12.9384 12.5667 12.4914 13.0137 11.9384 13.0137Z" fill="black"/>
<path id="Fill 7" fill-rule="evenodd" clip-rule="evenodd" d="M7.92968 13.0137C7.37668 13.0137 6.92468 12.5667 6.92468 12.0137C6.92468 11.4607 7.36768 11.0137 7.92068 11.0137H7.92968C8.48268 11.0137 8.92968 11.4607 8.92968 12.0137C8.92968 12.5667 8.48268 13.0137 7.92968 13.0137Z" fill="black"/>
</g>
</g>
</svg>
