<svg width="24" height="24" viewBox="0 0 24 24" fill="none" xmlns="http://www.w3.org/2000/svg">
<g id="Iconly/Light-Outline/Play">
<g id="Play">
<path id="Fill 1" fill-rule="evenodd" clip-rule="evenodd" d="M12.25 3.5C7.425 3.5 3.5 7.425 3.5 12.25C3.5 17.075 7.425 21 12.25 21C17.075 21 21 17.075 21 12.25C21 7.425 17.075 3.5 12.25 3.5ZM12.25 22.5C6.598 22.5 2 17.902 2 12.25C2 6.598 6.598 2 12.25 2C17.902 2 22.5 6.598 22.5 12.25C22.5 17.902 17.902 22.5 12.25 22.5Z" fill="black"/>
<path id="Fill 3" fill-rule="evenodd" clip-rule="evenodd" d="M11.1338 10.0864C10.9568 11.0874 10.9538 13.4784 11.1308 14.4284C12.0088 14.1184 13.9108 12.8684 14.4228 12.2494C13.9128 11.6484 12.0348 10.4244 11.1338 10.0864ZM10.8278 16.0014C10.5578 16.0014 10.3018 15.9244 10.0928 15.7164C9.93176 15.5574 9.50176 15.1324 9.49976 12.3334C9.49876 9.36139 9.94576 8.91939 10.0928 8.77239C10.6158 8.25439 11.4678 8.60939 11.8308 8.76139C12.3508 8.97839 15.9998 10.8474 15.9998 12.2454C15.9998 13.5554 12.7158 15.3874 11.8768 15.7374C11.5498 15.8734 11.1768 16.0014 10.8278 16.0014Z" fill="black"/>
</g>
</g>
</svg>
