<svg width="24" height="24" viewBox="0 0 24 24" fill="none" xmlns="http://www.w3.org/2000/svg">
<g id="Iconly/Light-Outline/Paper Upload">
<g id="Paper Upload">
<g id="Group 3">
<mask id="mask0_33437_4643" style="mask-type:luminance" maskUnits="userSpaceOnUse" x="3" y="2" width="18" height="20">
<path id="Clip 2" fill-rule="evenodd" clip-rule="evenodd" d="M3.00024 2.0116H20.0524V21.8651H3.00024V2.0116Z" fill="white"/>
</mask>
<g mask="url(#mask0_33437_4643)">
<path id="Fill 1" fill-rule="evenodd" clip-rule="evenodd" d="M7.57331 3.5116C5.91631 3.5116 4.54031 4.8536 4.50131 6.5086V17.2276C4.46531 18.9286 5.80531 20.3286 7.49031 20.3656H15.5733C17.2423 20.3056 18.5633 18.9286 18.5523 17.2326V8.3396L13.9183 3.5116H7.58531H7.57331ZM7.58531 21.8656H7.45931C4.94731 21.8116 2.94731 19.7236 3.00131 17.2116V6.4906C3.06031 4.0096 5.10831 2.0116 7.57031 2.0116H7.58831H14.2373C14.4413 2.0116 14.6363 2.0946 14.7783 2.2416L19.8443 7.5186C19.9773 7.6576 20.0523 7.8446 20.0523 8.0376V17.2276C20.0683 19.7366 18.1123 21.7756 15.5993 21.8656H7.58531Z" fill="black"/>
</g>
</g>
<path id="Fill 4" fill-rule="evenodd" clip-rule="evenodd" d="M19.298 8.98424H16.544C14.713 8.97924 13.226 7.48724 13.226 5.65924V2.75024C13.226 2.33624 13.562 2.00024 13.976 2.00024C14.39 2.00024 14.726 2.33624 14.726 2.75024V5.65924C14.726 6.66324 15.542 7.48124 16.546 7.48424H19.298C19.712 7.48424 20.048 7.82024 20.048 8.23424C20.048 8.64824 19.712 8.98424 19.298 8.98424Z" fill="black"/>
<path id="Fill 6" fill-rule="evenodd" clip-rule="evenodd" d="M11.1417 16.7002C10.7277 16.7002 10.3917 16.3642 10.3917 15.9502V9.90918C10.3917 9.49518 10.7277 9.15918 11.1417 9.15918C11.5557 9.15918 11.8917 9.49518 11.8917 9.90918V15.9502C11.8917 16.3642 11.5557 16.7002 11.1417 16.7002Z" fill="black"/>
<path id="Fill 8" fill-rule="evenodd" clip-rule="evenodd" d="M8.79699 13.0145C8.60599 13.0145 8.41399 12.9415 8.26799 12.7955C7.97499 12.5035 7.97299 12.0295 8.26599 11.7355L10.61 9.37949C10.892 9.09649 11.392 9.09649 11.673 9.37949L14.019 11.7355C14.311 12.0295 14.31 12.5035 14.017 12.7955C13.723 13.0875 13.248 13.0875 12.956 12.7935L11.142 10.9715L9.32799 12.7935C9.18199 12.9415 8.98899 13.0145 8.79699 13.0145Z" fill="black"/>
</g>
</g>
</svg>
