<svg width="24" height="24" viewBox="0 0 24 24" fill="none" xmlns="http://www.w3.org/2000/svg">
<g id="Iconly/Light-Outline/Paper Fail">
<g id="Paper Fail">
<g id="Group 3">
<mask id="mask0_33437_4591" style="mask-type:luminance" maskUnits="userSpaceOnUse" x="3" y="2" width="18" height="20">
<path id="Clip 2" fill-rule="evenodd" clip-rule="evenodd" d="M3 2.01172H20.0515V21.8667H3V2.01172Z" fill="white"/>
</mask>
<g mask="url(#mask0_33437_4591)">
<path id="Fill 1" fill-rule="evenodd" clip-rule="evenodd" d="M7.47851 3.51172C5.83551 3.51172 4.49951 4.84872 4.49951 6.49072V17.3397C4.50451 18.1507 4.82651 18.9147 5.40551 19.4877C5.98351 20.0587 6.78051 20.3867 7.56651 20.3667C7.57351 20.3667 7.68351 20.3657 7.68951 20.3657H15.5725C17.2145 20.3477 18.5545 18.9907 18.5515 17.3407V8.34172L13.9165 3.51172H7.47851ZM7.54251 21.8667C6.34251 21.8667 5.20751 21.4017 4.35051 20.5537C3.48651 19.6997 3.00651 18.5597 2.99951 17.3437V6.49072C2.99951 4.02172 5.00851 2.01172 7.47851 2.01172H14.2365C14.4405 2.01172 14.6355 2.09472 14.7775 2.24172L19.8425 7.52072C19.9765 7.65972 20.0515 7.84672 20.0515 8.03972V17.3397C20.0565 19.8087 18.0505 21.8397 15.5805 21.8657L7.57151 21.8667H7.54251Z" fill="black"/>
</g>
</g>
<path id="Fill 4" fill-rule="evenodd" clip-rule="evenodd" d="M19.2969 8.98437H16.5409C14.7109 8.97937 13.2239 7.48737 13.2239 5.65937V2.75037C13.2239 2.33637 13.5599 2.00037 13.9739 2.00037C14.3879 2.00037 14.7239 2.33637 14.7239 2.75037V5.65937C14.7239 6.66337 15.5399 7.48137 16.5429 7.48437H19.2969C19.7109 7.48437 20.0469 7.82037 20.0469 8.23437C20.0469 8.64837 19.7109 8.98437 19.2969 8.98437Z" fill="black"/>
<path id="Fill 6" fill-rule="evenodd" clip-rule="evenodd" d="M13.0752 15.3985C12.8832 15.3985 12.6912 15.3255 12.5452 15.1785L9.07925 11.7125C8.78625 11.4195 8.78625 10.9455 9.07925 10.6525C9.37225 10.3595 9.84625 10.3595 10.1392 10.6525L13.6052 14.1185C13.8982 14.4115 13.8982 14.8855 13.6052 15.1785C13.4592 15.3255 13.2672 15.3985 13.0752 15.3985Z" fill="black"/>
<path id="Fill 8" fill-rule="evenodd" clip-rule="evenodd" d="M9.61035 15.3985C9.41835 15.3985 9.22635 15.3255 9.08035 15.1785C8.78735 14.8855 8.78735 14.4115 9.08035 14.1185L12.5463 10.6525C12.8393 10.3595 13.3133 10.3595 13.6063 10.6525C13.8993 10.9455 13.8993 11.4195 13.6063 11.7125L10.1403 15.1785C9.99435 15.3255 9.80235 15.3985 9.61035 15.3985Z" fill="black"/>
</g>
</g>
</svg>
