<svg width="24" height="24" viewBox="0 0 24 24" fill="none" xmlns="http://www.w3.org/2000/svg">
<g id="Iconly/Light-Outline/Paper">
<g id="Paper">
<g id="Group 3">
<mask id="mask0_33437_4402" style="mask-type:luminance" maskUnits="userSpaceOnUse" x="3" y="2" width="18" height="20">
<path id="Clip 2" fill-rule="evenodd" clip-rule="evenodd" d="M3.00024 2.0116H20.0529V21.8651H3.00024V2.0116Z" fill="white"/>
</mask>
<g mask="url(#mask0_33437_4402)">
<path id="Fill 1" fill-rule="evenodd" clip-rule="evenodd" d="M7.57335 3.5116C5.91635 3.5116 4.54035 4.8536 4.50135 6.5086V17.2036C4.46435 18.9166 5.81435 20.3276 7.51035 20.3656H15.5743C17.2433 20.2966 18.5653 18.9096 18.5533 17.2096V8.3396L13.9183 3.5116H7.58535H7.57335ZM7.58535 21.8656H7.47635C4.95435 21.8086 2.94635 19.7106 3.00135 17.1876V6.4906C3.05935 4.0096 5.10835 2.0116 7.57135 2.0116H7.58835H14.2383C14.4423 2.0116 14.6373 2.0946 14.7793 2.2416L19.8443 7.5186C19.9783 7.6576 20.0533 7.8446 20.0533 8.0376V17.2036C20.0713 19.7126 18.1173 21.7626 15.6043 21.8646L7.58535 21.8656Z" fill="black"/>
</g>
</g>
<path id="Fill 4" fill-rule="evenodd" clip-rule="evenodd" d="M19.2985 8.98424H16.5435C14.7135 8.97924 13.2255 7.48724 13.2255 5.65924V2.75024C13.2255 2.33624 13.5615 2.00024 13.9755 2.00024C14.3895 2.00024 14.7255 2.33624 14.7255 2.75024V5.65924C14.7255 6.66324 15.5425 7.48124 16.5455 7.48424H19.2985C19.7125 7.48424 20.0485 7.82024 20.0485 8.23424C20.0485 8.64824 19.7125 8.98424 19.2985 8.98424Z" fill="black"/>
<path id="Fill 6" fill-rule="evenodd" clip-rule="evenodd" d="M13.7887 16.1084H8.38867C7.97467 16.1084 7.63867 15.7724 7.63867 15.3584C7.63867 14.9444 7.97467 14.6084 8.38867 14.6084H13.7887C14.2027 14.6084 14.5387 14.9444 14.5387 15.3584C14.5387 15.7724 14.2027 16.1084 13.7887 16.1084Z" fill="black"/>
<path id="Fill 8" fill-rule="evenodd" clip-rule="evenodd" d="M11.7437 12.3563H8.3877C7.9737 12.3563 7.6377 12.0203 7.6377 11.6063C7.6377 11.1923 7.9737 10.8563 8.3877 10.8563H11.7437C12.1577 10.8563 12.4937 11.1923 12.4937 11.6063C12.4937 12.0203 12.1577 12.3563 11.7437 12.3563Z" fill="black"/>
</g>
</g>
</svg>
