<svg width="24" height="24" viewBox="0 0 24 24" fill="none" xmlns="http://www.w3.org/2000/svg">
<g id="Iconly/Light-Outline/Paper Negative">
<g id="Group 7">
<path id="Fill 1" fill-rule="evenodd" clip-rule="evenodd" d="M7.5719 3.51172C5.9149 3.51172 4.5399 4.85372 4.5009 6.50872V17.3397C4.4719 18.9867 5.7789 20.3387 7.4129 20.3667L7.5609 20.3657H15.5729C17.2149 20.3477 18.5539 18.9907 18.5519 17.3407V8.34172L13.9169 3.51172H7.5849H7.5719ZM7.3989 21.8667C4.9259 21.8237 2.9589 19.7867 3.0009 17.3267V6.49072C3.0579 4.00972 5.1059 2.01172 7.5689 2.01172H7.5879H14.2359C14.4399 2.01172 14.6349 2.09472 14.7769 2.24172L19.8429 7.52072C19.9769 7.65972 20.0519 7.84672 20.0519 8.03972V17.3397C20.0559 19.8087 18.0499 21.8397 15.5809 21.8657L7.3989 21.8667Z" fill="black"/>
<path id="Fill 3" fill-rule="evenodd" clip-rule="evenodd" d="M19.2966 8.98437H16.5426C14.7116 8.97937 13.2236 7.48737 13.2236 5.65937V2.75037C13.2236 2.33637 13.5596 2.00037 13.9736 2.00037C14.3876 2.00037 14.7236 2.33637 14.7236 2.75037V5.65937C14.7236 6.66337 15.5406 7.48137 16.5446 7.48437H19.2966C19.7106 7.48437 20.0466 7.82037 20.0466 8.23437C20.0466 8.64837 19.7106 8.98437 19.2966 8.98437Z" fill="black"/>
<path id="Fill 5" fill-rule="evenodd" clip-rule="evenodd" d="M13.7926 14.4971H8.89355C8.47955 14.4971 8.14355 14.1611 8.14355 13.7471C8.14355 13.3331 8.47955 12.9971 8.89355 12.9971H13.7926C14.2066 12.9971 14.5426 13.3331 14.5426 13.7471C14.5426 14.1611 14.2066 14.4971 13.7926 14.4971Z" fill="black"/>
</g>
</g>
</svg>
