<svg width="24" height="24" viewBox="0 0 24 24" fill="none" xmlns="http://www.w3.org/2000/svg">
<g id="Iconly/Light-Outline/Swap">
<g id="Swap">
<path id="Stroke 1" d="M16.8396 5.79639C17.2193 5.79639 17.5331 6.07854 17.5828 6.44462L17.5896 6.54639V20.1642C17.5896 20.5784 17.2538 20.9142 16.8396 20.9142C16.4599 20.9142 16.1461 20.632 16.0964 20.2659L16.0896 20.1642V6.54639C16.0896 6.13217 16.4254 5.79639 16.8396 5.79639Z" fill="black"/>
<path id="Stroke 3" d="M20.3857 15.5389C20.6779 15.2453 21.1528 15.2442 21.4464 15.5364C21.7133 15.8021 21.7384 16.2187 21.5213 16.5128L21.4488 16.5971L17.3711 20.6938C17.1045 20.9615 16.6863 20.9859 16.3922 20.7668L16.3079 20.6938L12.2302 16.5971C11.9379 16.3035 11.939 15.8287 12.2326 15.5364C12.4995 15.2708 12.9162 15.2475 13.2093 15.4661L13.2933 15.5389L16.8391 19.1009L20.3857 15.5389Z" fill="black"/>
<path id="Stroke 5" d="M6.91113 3.08289C7.29083 3.08289 7.60462 3.36504 7.65429 3.73112L7.66113 3.83289V17.4507C7.66113 17.8649 7.32535 18.2007 6.91113 18.2007C6.53144 18.2007 6.21764 17.9185 6.16798 17.5524L6.16113 17.4507V3.83289C6.16113 3.41867 6.49692 3.08289 6.91113 3.08289Z" fill="black"/>
<path id="Stroke 7" d="M6.37972 3.30317C6.64624 3.03542 7.06449 3.01108 7.3586 3.23015L7.44283 3.30317L11.5206 7.39984C11.8128 7.69341 11.8117 8.16828 11.5182 8.4605C11.2513 8.72615 10.8346 8.74939 10.5414 8.53086L10.4575 8.45805L6.91105 4.89494L3.36505 8.45805C3.0994 8.72493 2.68279 8.7501 2.38868 8.53292L2.30439 8.4605C2.03751 8.19485 2.01234 7.77824 2.22952 7.48412L2.30194 7.39984L6.37972 3.30317Z" fill="black"/>
</g>
</g>
</svg>
