<svg width="24" height="24" viewBox="0 0 24 24" fill="none" xmlns="http://www.w3.org/2000/svg">
<g id="Iconly/Light-Outline/Shield Fail">
<g id="Shield Fail">
<g id="Group 3">
<mask id="mask0_33437_4807" style="mask-type:luminance" maskUnits="userSpaceOnUse" x="4" y="2" width="17" height="21">
<path id="Clip 2" fill-rule="evenodd" clip-rule="evenodd" d="M4.00024 2.00037H20.967V22.356H4.00024V2.00037Z" fill="white"/>
</mask>
<g mask="url(#mask0_33437_4807)">
<path id="Fill 1" fill-rule="evenodd" clip-rule="evenodd" d="M12.4837 3.5C11.6357 3.5 6.28468 5.384 5.66768 5.899C5.48668 6.081 5.47968 6.399 5.51768 8.526C5.53668 9.552 5.56168 10.947 5.56168 12.879C5.56168 18.08 11.2837 20.389 12.4827 20.814C13.6807 20.387 19.4057 18.065 19.4057 12.879C19.4057 10.949 19.4307 9.555 19.4487 8.529C19.4877 6.4 19.4807 6.082 19.2877 5.889C18.6817 5.384 13.3317 3.5 12.4837 3.5ZM12.4837 22.356C12.4107 22.356 12.3377 22.346 12.2667 22.324C11.9317 22.223 4.06168 19.761 4.06168 12.879C4.06168 10.959 4.03668 9.572 4.01868 8.554C3.97268 6.014 3.96268 5.484 4.61768 4.828C5.40468 4.041 11.3507 2 12.4837 2C13.6167 2 19.5627 4.041 20.3487 4.828C21.0047 5.484 20.9947 6.014 20.9487 8.557C20.9307 9.575 20.9057 10.962 20.9057 12.879C20.9057 19.761 13.0357 22.223 12.7007 22.324C12.6297 22.346 12.5567 22.356 12.4837 22.356Z" fill="black"/>
</g>
</g>
<path id="Fill 4" fill-rule="evenodd" clip-rule="evenodd" d="M14.3625 14.5751C14.1705 14.5751 13.9785 14.5021 13.8325 14.3551L10.0745 10.5971C9.78149 10.3041 9.78149 9.83013 10.0745 9.53713C10.3675 9.24413 10.8415 9.24413 11.1345 9.53713L14.8925 13.2951C15.1855 13.5881 15.1855 14.0621 14.8925 14.3551C14.7465 14.5021 14.5545 14.5751 14.3625 14.5751Z" fill="black"/>
<path id="Fill 6" fill-rule="evenodd" clip-rule="evenodd" d="M10.6047 14.5751C10.4127 14.5751 10.2207 14.5021 10.0747 14.3551C9.78173 14.0621 9.78173 13.5881 10.0747 13.2951L13.8327 9.53713C14.1257 9.24413 14.5997 9.24413 14.8927 9.53713C15.1857 9.83013 15.1857 10.3041 14.8927 10.5971L11.1347 14.3551C10.9887 14.5021 10.7967 14.5751 10.6047 14.5751Z" fill="black"/>
</g>
</g>
</svg>
