<svg width="24" height="24" viewBox="0 0 24 24" fill="none" xmlns="http://www.w3.org/2000/svg">
<g id="Iconly/Light-Outline/Shield Done">
<g id="Shield Done">
<g id="Group 3">
<mask id="mask0_33437_4720" style="mask-type:luminance" maskUnits="userSpaceOnUse" x="4" y="2" width="17" height="21">
<path id="Clip 2" fill-rule="evenodd" clip-rule="evenodd" d="M4.00024 2.00037H20.9671V22.356H4.00024V2.00037Z" fill="white"/>
</mask>
<g mask="url(#mask0_33437_4720)">
<path id="Fill 1" fill-rule="evenodd" clip-rule="evenodd" d="M12.4837 3.5C11.6357 3.5 6.28566 5.384 5.66866 5.899C5.48666 6.082 5.47966 6.4 5.51866 8.529C5.53666 9.555 5.56166 10.949 5.56166 12.879C5.56166 18.08 11.2837 20.389 12.4827 20.814C13.6807 20.387 19.4057 18.065 19.4057 12.879C19.4057 10.947 19.4307 9.552 19.4497 8.526C19.4877 6.399 19.4807 6.081 19.2877 5.889C18.6827 5.384 13.3317 3.5 12.4837 3.5ZM12.4837 22.356C12.4107 22.356 12.3377 22.346 12.2667 22.324C11.9317 22.223 4.06166 19.761 4.06166 12.879C4.06166 10.962 4.03666 9.575 4.01866 8.557C3.97266 6.014 3.96266 5.484 4.61966 4.828C5.40466 4.041 11.3497 2 12.4837 2C13.6167 2 19.5617 4.041 20.3487 4.828C21.0047 5.484 20.9947 6.014 20.9487 8.554C20.9307 9.572 20.9057 10.959 20.9057 12.879C20.9057 19.761 13.0357 22.223 12.7007 22.324C12.6297 22.346 12.5567 22.356 12.4837 22.356Z" fill="black"/>
</g>
</g>
<path id="Fill 4" fill-rule="evenodd" clip-rule="evenodd" d="M11.7771 14.5195C11.5781 14.5195 11.3871 14.4405 11.2461 14.2995L9.35413 12.4055C9.06213 12.1125 9.06213 11.6365 9.35513 11.3445C9.64713 11.0515 10.1231 11.0515 10.4161 11.3445L11.7771 12.7075L15.1451 9.3395C15.4381 9.0465 15.9121 9.0465 16.2051 9.3395C16.4981 9.6325 16.4981 10.1075 16.2051 10.4005L12.3071 14.2995C12.1671 14.4405 11.9761 14.5195 11.7771 14.5195Z" fill="black"/>
</g>
</g>
</svg>
