<svg width="24" height="24" viewBox="0 0 24 24" fill="none" xmlns="http://www.w3.org/2000/svg">
<g id="Iconly/Light-Outline/Ticket">
<g id="Group 10">
<path id="Fill 1" fill-rule="evenodd" clip-rule="evenodd" d="M13.5996 8.17088C13.1856 8.17088 12.8496 7.83488 12.8496 7.42088V4.99988C12.8496 4.58588 13.1856 4.24988 13.5996 4.24988C14.0136 4.24988 14.3496 4.58588 14.3496 4.99988V7.42088C14.3496 7.83488 14.0136 8.17088 13.5996 8.17088Z" fill="black"/>
<path id="Fill 3" fill-rule="evenodd" clip-rule="evenodd" d="M13.5996 21.2842C13.1856 21.2842 12.8496 20.9482 12.8496 20.5342V18.5112C12.8496 18.0962 13.1856 17.7612 13.5996 17.7612C14.0136 17.7612 14.3496 18.0962 14.3496 18.5112V20.5342C14.3496 20.9482 14.0136 21.2842 13.5996 21.2842Z" fill="black"/>
<path id="Fill 5" fill-rule="evenodd" clip-rule="evenodd" d="M13.5996 15.8252C13.1856 15.8252 12.8496 15.4892 12.8496 15.0752V10.2542C12.8496 9.84015 13.1856 9.50415 13.5996 9.50415C14.0136 9.50415 14.3496 9.84015 14.3496 10.2542V15.0752C14.3496 15.4892 14.0136 15.8252 13.5996 15.8252Z" fill="black"/>
<g id="Group 9">
<mask id="mask0_33437_4422" style="mask-type:luminance" maskUnits="userSpaceOnUse" x="1" y="4" width="22" height="18">
<path id="Clip 8" fill-rule="evenodd" clip-rule="evenodd" d="M1 4H22.5V21.4997H1V4Z" fill="white"/>
</mask>
<g mask="url(#mask0_33437_4422)">
<path id="Fill 7" fill-rule="evenodd" clip-rule="evenodd" d="M2.5 15.5538V17.4928C2.5 18.8748 3.643 19.9998 5.048 19.9998H18.452C19.857 19.9998 21 18.8748 21 17.4928V15.5538C19.749 15.2248 18.823 14.0928 18.823 12.7508C18.823 11.4078 19.748 10.2768 21 9.94776L20.999 8.00676C20.999 6.62476 19.856 5.49976 18.451 5.49976H5.049C3.644 5.49976 2.501 6.62476 2.501 8.00676L2.5 10.0248C3.767 10.3358 4.677 11.4218 4.677 12.7508C4.677 14.0928 3.751 15.2248 2.5 15.5538ZM18.452 21.4998H5.048C2.816 21.4998 1 19.7018 1 17.4928V14.9008C1 14.4868 1.336 14.1508 1.75 14.1508C2.537 14.1508 3.177 13.5228 3.177 12.7508C3.177 12.0008 2.563 11.4348 1.75 11.4348C1.551 11.4348 1.36 11.3558 1.22 11.2148C1.079 11.0748 1 10.8828 1 10.6848L1.001 8.00676C1.001 5.79776 2.817 3.99976 5.049 3.99976H18.451C20.683 3.99976 22.499 5.79776 22.499 8.00676L22.5 10.6008C22.5 10.7988 22.421 10.9908 22.28 11.1308C22.14 11.2718 21.949 11.3508 21.75 11.3508C20.963 11.3508 20.323 11.9788 20.323 12.7508C20.323 13.5228 20.963 14.1508 21.75 14.1508C22.164 14.1508 22.5 14.4868 22.5 14.9008V17.4928C22.5 19.7018 20.684 21.4998 18.452 21.4998Z" fill="black"/>
</g>
</g>
</g>
</g>
</svg>
