<svg width="140" height="140" viewBox="0 0 140 140" fill="none" xmlns="http://www.w3.org/2000/svg">
<path d="M83.5909 10.1568C91.3287 10.8731 97.2858 16.9371 97.8439 24.6879C98.5393 34.3464 99.2726 49.3768 99.2726 69.8177C99.2726 94.8515 98.7227 112.977 98.3311 122.71C98.1455 127.324 94.3552 130.909 89.7372 130.909C83.2288 130.909 72.1586 130.909 54.1817 130.909C36.2315 130.909 25.1675 130.909 18.6552 130.909C14.0255 130.909 10.2265 127.301 10.0443 122.675C9.65205 112.715 9.09082 94.2044 9.09082 69.8177C9.09082 49.8663 9.84212 34.6717 10.545 24.8218C11.1023 17.0122 17.0983 10.8645 24.8947 10.1455C32.6486 9.43038 43.0944 8.72684 54.1817 8.72684C65.3274 8.72684 75.8248 9.4378 83.5909 10.1568Z" fill="white"/>
<path d="M83.5909 10.1568C91.3287 10.8731 97.2858 16.9371 97.8439 24.6879C98.5393 34.3464 99.2726 49.3768 99.2726 69.8177C99.2726 94.8515 98.7227 112.977 98.3311 122.71C98.1455 127.324 94.3552 130.909 89.7372 130.909C83.2288 130.909 72.1586 130.909 54.1817 130.909C36.2315 130.909 25.1675 130.909 18.6552 130.909C14.0255 130.909 10.2265 127.301 10.0443 122.675C9.65205 112.715 9.09082 94.2044 9.09082 69.8177C9.09082 49.8663 9.84212 34.6717 10.545 24.8218C11.1023 17.0122 17.0983 10.8645 24.8947 10.1455C32.6486 9.43038 43.0944 8.72684 54.1817 8.72684C65.3274 8.72684 75.8247 9.4378 83.5909 10.1568Z" stroke="black" stroke-width="8.72727" stroke-linecap="round" stroke-linejoin="round"/>
<path d="M89.7371 130.909L121.942 130.909C126.577 130.909 130.392 127.292 130.575 122.66C130.884 114.839 131.272 102.294 131.272 88.7273C131.272 78.3614 130.818 69.0189 130.329 61.9576C129.78 54.0437 123.647 47.8251 115.734 47.2745C111.023 46.9468 105.297 46.6615 98.9309 46.5734" stroke="black" stroke-width="8.72727" stroke-linecap="round" stroke-linejoin="round"/>
<path d="M68.4834 130.909C68.4899 130.807 68.4952 130.705 68.4992 130.603C68.625 127.402 68.7271 122.817 68.7271 116.363C68.7271 109.91 68.625 105.324 68.4992 102.123C68.3291 97.7957 65.9105 94.1338 61.6205 93.5409C59.6988 93.2753 57.2567 93.0904 54.1817 93.0904C51.1067 93.0904 48.6646 93.2753 46.7429 93.5409C42.4528 94.1338 40.0343 97.7957 39.8642 102.123C39.7383 105.324 39.6362 109.91 39.6362 116.363C39.6362 122.817 39.7383 127.402 39.8642 130.603C39.8682 130.705 39.8734 130.807 39.88 130.909" stroke="black" stroke-width="8.72727" stroke-linecap="round" stroke-linejoin="round"/>
<path d="M38.1816 34.9086V40.7268" stroke="black" stroke-width="8.72727" stroke-linecap="round" stroke-linejoin="round"/>
<path d="M38.1816 66.9085V72.7267" stroke="black" stroke-width="8.72727" stroke-linecap="round" stroke-linejoin="round"/>
<path d="M70.1816 34.9086V40.7268" stroke="black" stroke-width="8.72727" stroke-linecap="round" stroke-linejoin="round"/>
<path d="M70.1816 66.9085V72.7267" stroke="black" stroke-width="8.72727" stroke-linecap="round" stroke-linejoin="round"/>
</svg>
