<svg width="24" height="24" viewBox="0 0 24 24" fill="none" xmlns="http://www.w3.org/2000/svg">
<g id="Iconly/Light-Outline/Upload">
<g id="Upload">
<g id="Group 3">
<mask id="mask0_33437_4829" style="mask-type:luminance" maskUnits="userSpaceOnUse" x="2" y="8" width="20" height="15">
<path id="Clip 2" fill-rule="evenodd" clip-rule="evenodd" d="M2.00037 8.79407H22V22.5381H2.00037V8.79407Z" fill="white"/>
</mask>
<g mask="url(#mask0_33437_4829)">
<path id="Fill 1" fill-rule="evenodd" clip-rule="evenodd" d="M17.5654 22.5381H6.43537C3.99037 22.5381 2.00037 20.5491 2.00037 18.1031V13.2281C2.00037 10.7831 3.99037 8.79407 6.43537 8.79407H7.36837C7.78237 8.79407 8.11837 9.13007 8.11837 9.54407C8.11837 9.95807 7.78237 10.2941 7.36837 10.2941H6.43537C4.81637 10.2941 3.50037 11.6101 3.50037 13.2281V18.1031C3.50037 19.7221 4.81637 21.0381 6.43537 21.0381H17.5654C19.1834 21.0381 20.5004 19.7221 20.5004 18.1031V13.2191C20.5004 11.6061 19.1884 10.2941 17.5764 10.2941H16.6334C16.2194 10.2941 15.8834 9.95807 15.8834 9.54407C15.8834 9.13007 16.2194 8.79407 16.6334 8.79407H17.5764C20.0154 8.79407 22.0004 10.7791 22.0004 13.2191V18.1031C22.0004 20.5491 20.0104 22.5381 17.5654 22.5381Z" fill="black"/>
</g>
</g>
<g id="Group 6">
<mask id="mask1_33437_4829" style="mask-type:luminance" maskUnits="userSpaceOnUse" x="11" y="2" width="2" height="14">
<path id="Clip 5" fill-rule="evenodd" clip-rule="evenodd" d="M11.25 2.00012H12.75V15.541H11.25V2.00012Z" fill="white"/>
</mask>
<g mask="url(#mask1_33437_4829)">
<path id="Fill 4" fill-rule="evenodd" clip-rule="evenodd" d="M12 15.541C11.586 15.541 11.25 15.205 11.25 14.791V2.75C11.25 2.336 11.586 2 12 2C12.414 2 12.75 2.336 12.75 2.75V14.791C12.75 15.205 12.414 15.541 12 15.541Z" fill="black"/>
</g>
</g>
<path id="Fill 7" fill-rule="evenodd" clip-rule="evenodd" d="M9.08496 6.42877C8.89396 6.42877 8.70196 6.35577 8.55596 6.20977C8.26296 5.91777 8.26096 5.44377 8.55396 5.14977L11.469 2.22177C11.75 1.93877 12.25 1.93877 12.531 2.22177L15.447 5.14977C15.739 5.44377 15.738 5.91777 15.445 6.20977C15.151 6.50177 14.677 6.50177 14.385 6.20777L12 3.81377L9.61596 6.20777C9.46996 6.35577 9.27696 6.42877 9.08496 6.42877Z" fill="black"/>
</g>
</g>
</svg>
