<svg width="24" height="24" viewBox="0 0 24 24" fill="none" xmlns="http://www.w3.org/2000/svg">
<g id="Iconly/Light-Outline/Unlock">
<g id="Unlock">
<path id="Fill 1" fill-rule="evenodd" clip-rule="evenodd" d="M7.80273 10.1982C7.38873 10.1982 7.05273 9.86224 7.05273 9.44824V7.30124C7.06573 4.36324 9.44173 2.00024 12.3547 2.00024H12.3747C14.6307 2.00024 16.6447 3.43324 17.3837 5.56724C17.5197 5.95824 17.3117 6.38524 16.9197 6.52124C16.5287 6.65824 16.1017 6.44924 15.9657 6.05724C15.4367 4.52824 13.9917 3.50024 12.3717 3.50024H12.3577C10.2657 3.50024 8.56173 5.19424 8.55273 7.28424V9.44824C8.55273 9.86224 8.21673 10.1982 7.80273 10.1982Z" fill="black"/>
<path id="Fill 3" fill-rule="evenodd" clip-rule="evenodd" d="M8.542 10.127C6.864 10.127 5.5 11.492 5.5 13.17V17.458C5.5 19.136 6.864 20.501 8.542 20.501H16.184C17.861 20.501 19.226 19.136 19.226 17.458V13.17C19.226 11.492 17.861 10.127 16.184 10.127H8.542ZM16.184 22.001H8.542C6.037 22.001 4 19.963 4 17.458V13.17C4 10.665 6.037 8.62695 8.542 8.62695H16.184C18.688 8.62695 20.726 10.665 20.726 13.17V17.458C20.726 19.963 18.688 22.001 16.184 22.001Z" fill="black"/>
<path id="Fill 5" fill-rule="evenodd" clip-rule="evenodd" d="M12.3633 17.1748C11.9493 17.1748 11.6133 16.8388 11.6133 16.4248V14.2028C11.6133 13.7888 11.9493 13.4528 12.3633 13.4528C12.7773 13.4528 13.1133 13.7888 13.1133 14.2028V16.4248C13.1133 16.8388 12.7773 17.1748 12.3633 17.1748Z" fill="black"/>
</g>
</g>
</svg>
