<svg width="24" height="24" viewBox="0 0 24 24" fill="none" xmlns="http://www.w3.org/2000/svg">
<g id="Iconly/Light-Outline/Volume Up">
<g id="Volume Up">
<g id="Group 3">
<mask id="mask0_33437_5007" style="mask-type:luminance" maskUnits="userSpaceOnUse" x="2" y="5" width="13" height="16">
<path id="Clip 2" fill-rule="evenodd" clip-rule="evenodd" d="M2 5.00024H14.02V20.5021H2V5.00024Z" fill="white"/>
</mask>
<g mask="url(#mask0_33437_5007)">
<path id="Fill 1" fill-rule="evenodd" clip-rule="evenodd" d="M11.208 6.50613C10.34 6.50613 9.22998 7.38713 8.30598 8.12113C7.41698 8.82613 6.71498 9.38413 6.01498 9.43613C5.70498 9.45813 5.43898 9.46813 5.20498 9.47613C4.45798 9.50113 4.26898 9.51813 3.93198 9.79613C3.48998 10.1591 3.49698 11.6421 3.50098 12.5271L3.50198 12.7481V12.7521L3.50098 12.9731C3.49698 13.8591 3.48998 15.3421 3.93198 15.7051C4.26798 15.9831 4.45698 15.9991 5.20198 16.0261C5.43698 16.0331 5.70398 16.0431 6.01498 16.0661C6.71498 16.1171 7.41698 16.6751 8.30598 17.3801C9.40898 18.2551 10.775 19.3401 11.681 18.8891C12.439 18.2321 12.52 16.4901 12.52 12.7501C12.52 9.01013 12.439 7.26913 11.681 6.61113C11.534 6.53813 11.375 6.50613 11.208 6.50613ZM11.218 20.5021C9.82698 20.5021 8.44798 19.4071 7.37398 18.5551C6.88898 18.1701 6.15598 17.5881 5.90298 17.5621C5.61598 17.5401 5.36798 17.5311 5.14898 17.5251C4.35098 17.4961 3.71998 17.4751 2.97798 16.8631C1.98598 16.0461 1.99498 14.3381 2.00098 12.9661L2.00198 12.7501L2.00098 12.5341C1.99498 11.1621 1.98598 9.45513 2.97798 8.63813C3.72098 8.02613 4.35298 8.00413 5.15298 7.97713C5.37098 7.96913 5.61798 7.96113 5.90498 7.94013C6.15598 7.91313 6.88898 7.33113 7.37398 6.94613C8.77298 5.83513 10.689 4.31813 12.474 5.33513C12.505 5.35413 12.536 5.37413 12.564 5.39713C13.958 6.49213 14.02 8.55713 14.02 12.7501C14.02 16.9441 13.958 19.0091 12.564 20.1051C12.536 20.1271 12.505 20.1481 12.473 20.1661C12.059 20.4021 11.638 20.5021 11.218 20.5021Z" fill="black"/>
</g>
</g>
<g id="Group 6">
<mask id="mask1_33437_5007" style="mask-type:luminance" maskUnits="userSpaceOnUse" x="19" y="5" width="4" height="15">
<path id="Clip 5" fill-rule="evenodd" clip-rule="evenodd" d="M19.0837 5.90356H22.4838V19.5959H19.0837V5.90356Z" fill="white"/>
</mask>
<g mask="url(#mask1_33437_5007)">
<path id="Fill 4" fill-rule="evenodd" clip-rule="evenodd" d="M19.8334 19.5959C19.6854 19.5959 19.5364 19.5519 19.4054 19.4609C19.0654 19.2249 18.9814 18.7579 19.2184 18.4169C21.6114 14.9769 21.6114 10.5279 19.2184 7.08188C18.9814 6.74188 19.0654 6.27488 19.4064 6.03788C19.7464 5.80088 20.2124 5.88588 20.4494 6.22688C23.1624 10.1309 23.1624 15.3739 20.4494 19.2749C20.3034 19.4839 20.0704 19.5959 19.8334 19.5959Z" fill="black"/>
</g>
</g>
<path id="Fill 7" fill-rule="evenodd" clip-rule="evenodd" d="M17.3306 17.1868C17.2036 17.1868 17.0756 17.1548 16.9576 17.0868C16.5986 16.8808 16.4746 16.4218 16.6806 16.0638C17.8516 14.0228 17.8516 11.4848 16.6806 9.4378C16.4746 9.0778 16.5996 8.6198 16.9586 8.4138C17.3186 8.2118 17.7756 8.3328 17.9816 8.6918C19.4166 11.1998 19.4166 14.3098 17.9816 16.8098C17.8426 17.0518 17.5906 17.1868 17.3306 17.1868Z" fill="black"/>
</g>
</g>
</svg>
