<svg width="24" height="24" viewBox="0 0 24 24" fill="none" xmlns="http://www.w3.org/2000/svg">
<g id="Iconly/Light-Outline/Video">
<g id="Video">
<g id="Group 3">
<mask id="mask0_33437_4468" style="mask-type:luminance" maskUnits="userSpaceOnUse" x="2" y="5" width="16" height="16">
<path id="Clip 2" fill-rule="evenodd" clip-rule="evenodd" d="M2.00024 5.00024H17.5005V20.5016H2.00024V5.00024Z" fill="white"/>
</mask>
<g mask="url(#mask0_33437_4468)">
<path id="Fill 1" fill-rule="evenodd" clip-rule="evenodd" d="M6.84735 6.50159C6.40835 6.50159 6.12535 6.50159 6.07635 6.50359C5.33835 6.53459 4.65735 6.84759 4.16635 7.38359C3.70835 7.88459 3.47235 8.52459 3.50335 9.18859C3.50335 12.0816 3.50435 16.4236 3.51135 16.6616C3.62535 18.0466 4.92335 19.1056 6.40935 18.9916C9.15935 18.9956 13.2334 19.0046 13.4244 18.9976C14.1594 18.9676 14.8414 18.6556 15.3324 18.1206C15.7914 17.6216 16.0274 16.9816 15.9984 16.3206C15.9974 16.3096 15.9974 16.2986 15.9974 16.2876C15.9984 13.4276 15.9984 9.08859 15.9914 8.85559C15.8784 7.46359 14.5744 6.39159 13.0804 6.50859C11.0144 6.50559 8.19535 6.50159 6.84735 6.50159ZM6.14635 20.5016C4.03235 20.5026 2.18835 18.8826 2.01435 16.7576C2.01135 16.7166 2.00135 16.5916 2.00435 9.22259C1.95635 8.19159 2.33035 7.16759 3.06035 6.37059C3.82235 5.53859 4.87335 5.05359 6.02035 5.00459C6.15935 4.99459 10.9674 5.00659 13.0264 5.01059C15.2764 4.85259 17.3074 6.52259 17.4884 8.76359C17.4964 8.87259 17.4994 11.3976 17.4974 16.2726C17.5394 17.3286 17.1634 18.3456 16.4374 19.1356C15.6744 19.9666 14.6224 20.4496 13.4764 20.4966C13.3364 20.5066 8.52635 20.4936 6.46435 20.4896C6.35835 20.4976 6.25235 20.5016 6.14635 20.5016Z" fill="black"/>
</g>
</g>
<path id="Fill 4" fill-rule="evenodd" clip-rule="evenodd" d="M20.8186 18.3493C20.3676 18.3493 19.9226 18.1943 19.5556 17.8933L16.2746 15.1973C15.9546 14.9343 15.9086 14.4613 16.1716 14.1413C16.4336 13.8223 16.9066 13.7743 17.2266 14.0383L20.5066 16.7343C20.7276 16.9143 20.9496 16.8403 21.0356 16.7983C21.1216 16.7583 21.3206 16.6333 21.3206 16.3493L21.3326 9.00031C21.3336 8.71631 21.1336 8.59131 21.0476 8.55031C20.9626 8.51031 20.7376 8.43531 20.5186 8.61531L17.2256 11.3103C16.9036 11.5733 16.4326 11.5263 16.1706 11.2043C15.9076 10.8843 15.9556 10.4123 16.2756 10.1503L19.5686 7.45431C20.1726 6.95931 20.9856 6.86231 21.6906 7.19531C22.3956 7.53031 22.8336 8.22231 22.8326 9.00231L22.8206 16.3513C22.8196 17.1313 22.3806 17.8233 21.6766 18.1553C21.4006 18.2863 21.1086 18.3493 20.8186 18.3493Z" fill="black"/>
</g>
</g>
</svg>
