<svg width="24" height="24" viewBox="0 0 24 24" fill="none" xmlns="http://www.w3.org/2000/svg">
<g id="Iconly/Light-Outline/Voice 3">
<g id="Voice 2">
<path id="Fill 1" fill-rule="evenodd" clip-rule="evenodd" d="M11.75 22.5C11.336 22.5 11 22.164 11 21.75V18.589C11 18.175 11.336 17.839 11.75 17.839C12.164 17.839 12.5 18.175 12.5 18.589V21.75C12.5 22.164 12.164 22.5 11.75 22.5Z" fill="black"/>
<path id="Fill 3" fill-rule="evenodd" clip-rule="evenodd" d="M11.75 2.5C9.92399 2.5 8.43799 3.994 8.43799 5.831V10.519C8.43799 12.354 9.92399 13.849 11.75 13.849C13.576 13.849 15.061 12.354 15.061 10.519V5.831C15.061 3.994 13.576 2.5 11.75 2.5ZM11.75 15.349C9.09699 15.349 6.93799 13.182 6.93799 10.519V5.831C6.93799 3.167 9.09699 1 11.75 1C14.403 1 16.561 3.167 16.561 5.831V10.519C16.561 13.182 14.403 15.349 11.75 15.349Z" fill="black"/>
<path id="Fill 5" fill-rule="evenodd" clip-rule="evenodd" d="M11.75 19.3389C6.925 19.3389 3 15.3969 3 10.5509C3 10.1369 3.336 9.8009 3.75 9.8009C4.164 9.8009 4.5 10.1369 4.5 10.5509C4.5 14.5689 7.752 17.8389 11.75 17.8389C15.748 17.8389 19 14.5689 19 10.5509C19 10.1369 19.336 9.8009 19.75 9.8009C20.164 9.8009 20.5 10.1369 20.5 10.5509C20.5 15.3969 16.575 19.3389 11.75 19.3389Z" fill="black"/>
<path id="Fill 7" fill-rule="evenodd" clip-rule="evenodd" d="M15.8086 7.25586H13.8186C13.4046 7.25586 13.0686 6.91986 13.0686 6.50586C13.0686 6.09186 13.4046 5.75586 13.8186 5.75586H15.8086C16.2226 5.75586 16.5586 6.09186 16.5586 6.50586C16.5586 6.91986 16.2226 7.25586 15.8086 7.25586Z" fill="black"/>
<path id="Fill 9" fill-rule="evenodd" clip-rule="evenodd" d="M15.8106 10.5938H12.8206C12.4066 10.5938 12.0706 10.2578 12.0706 9.84375C12.0706 9.42975 12.4066 9.09375 12.8206 9.09375H15.8106C16.2246 9.09375 16.5606 9.42975 16.5606 9.84375C16.5606 10.2578 16.2246 10.5938 15.8106 10.5938Z" fill="black"/>
</g>
</g>
</svg>
