<svg width="24" height="24" viewBox="0 0 24 24" fill="none" xmlns="http://www.w3.org/2000/svg">
<g id="Iconly/Light-Outline/Volume Off">
<g id="Volume Off">
<g id="Group 3">
<mask id="mask0_33437_5036" style="mask-type:luminance" maskUnits="userSpaceOnUse" x="3" y="4" width="13" height="14">
<path id="Clip 2" fill-rule="evenodd" clip-rule="evenodd" d="M3 4.60107H15.0337V17.7873H3V4.60107Z" fill="white"/>
</mask>
<g mask="url(#mask0_33437_5036)">
<path id="Fill 1" fill-rule="evenodd" clip-rule="evenodd" d="M12.2305 6.11133C11.3645 6.11133 10.2515 7.02733 9.32551 7.78933C8.43551 8.52133 7.73351 9.09933 7.02851 9.15533C6.71351 9.17933 6.44351 9.19033 6.20551 9.19933C5.46651 9.22633 5.27951 9.24433 4.94751 9.52833C4.49451 9.91533 4.49851 11.4633 4.50051 12.3873L4.50151 12.6333L4.50051 12.8803C4.49851 13.8043 4.49451 15.3523 4.94751 15.7393C5.28651 16.0293 5.47851 16.0473 6.23551 16.0733C6.46451 16.0813 6.72351 16.0903 7.02251 16.1113C7.10851 16.1173 7.19651 16.1313 7.28651 16.1533L13.5245 9.91533C13.4515 7.69033 13.2265 6.69233 12.6965 6.21833C12.5525 6.14433 12.3965 6.11133 12.2305 6.11133ZM7.46351 17.7873C7.33451 17.7873 7.20551 17.7543 7.08851 17.6863C6.96851 17.6173 6.91351 17.6073 6.91351 17.6073C6.63751 17.5883 6.39751 17.5793 6.18351 17.5723C5.36751 17.5443 4.72251 17.5213 3.97251 16.8803C2.99251 16.0423 2.99651 14.2873 3.00051 12.8763L3.00151 12.6333L3.00051 12.3913C2.99651 10.9803 2.99251 9.22433 3.97351 8.38733C4.71351 7.75433 5.34751 7.73033 6.14851 7.70033C6.36951 7.69133 6.61851 7.68233 6.91051 7.65933C7.16151 7.62733 7.89051 7.02733 8.37251 6.63133C9.77851 5.47233 11.7055 3.88633 13.5075 4.95433C13.5405 4.97233 13.5715 4.99433 13.6005 5.01833C14.7245 5.93333 14.9645 7.48133 15.0335 10.1983C15.0385 10.4033 14.9595 10.6013 14.8135 10.7473L7.99451 17.5673C7.84951 17.7123 7.65751 17.7873 7.46351 17.7873Z" fill="black"/>
</g>
</g>
<path id="Fill 4" fill-rule="evenodd" clip-rule="evenodd" d="M12.2328 20.666C11.2228 20.666 10.2638 20.081 9.55279 19.566C9.21679 19.324 9.14179 18.855 9.38379 18.52C9.62779 18.184 10.0968 18.107 10.4318 18.352C11.7448 19.301 12.3368 19.238 12.6958 19.05C13.2778 18.531 13.4988 17.363 13.5328 14.657C13.5388 14.243 13.8418 13.921 14.2928 13.917C14.7068 13.923 15.0388 14.263 15.0328 14.677C14.9948 17.632 14.7628 19.305 13.5998 20.25C13.5698 20.273 13.5398 20.295 13.5078 20.313C13.0838 20.564 12.6538 20.666 12.2328 20.666Z" fill="black"/>
<g id="Group 8">
<mask id="mask1_33437_5036" style="mask-type:luminance" maskUnits="userSpaceOnUse" x="3" y="4" width="18" height="18">
<path id="Clip 7" fill-rule="evenodd" clip-rule="evenodd" d="M3.00171 4.00024H20.5V21.5H3.00171V4.00024Z" fill="white"/>
</mask>
<g mask="url(#mask1_33437_5036)">
<path id="Fill 6" fill-rule="evenodd" clip-rule="evenodd" d="M3.75146 21.5C3.55946 21.5 3.36746 21.427 3.22146 21.28C2.92846 20.987 2.92846 20.513 3.22146 20.22L19.2205 4.21999C19.5135 3.92699 19.9875 3.92699 20.2805 4.21999C20.5735 4.51299 20.5735 4.98699 20.2805 5.27999L4.28146 21.28C4.13546 21.427 3.94346 21.5 3.75146 21.5Z" fill="black"/>
</g>
</g>
</g>
</g>
</svg>
