<svg width="24" height="24" viewBox="0 0 24 24" fill="none" xmlns="http://www.w3.org/2000/svg">
<g id="Iconly/Light-Outline/Voice">
<g id="Voice">
<path id="Fill 1" fill-rule="evenodd" clip-rule="evenodd" d="M11.7495 22.5C11.3355 22.5 10.9995 22.164 10.9995 21.75V18.589C10.9995 18.175 11.3355 17.839 11.7495 17.839C12.1635 17.839 12.4995 18.175 12.4995 18.589V21.75C12.4995 22.164 12.1635 22.5 11.7495 22.5Z" fill="black"/>
<path id="Fill 3" fill-rule="evenodd" clip-rule="evenodd" d="M11.7495 2.5C9.9235 2.5 8.4375 3.994 8.4375 5.831V10.519C8.4375 12.354 9.9235 13.849 11.7495 13.849C13.5755 13.849 15.0615 12.354 15.0615 10.519V5.831C15.0615 3.994 13.5755 2.5 11.7495 2.5ZM11.7495 15.349C9.0965 15.349 6.9375 13.182 6.9375 10.519V5.831C6.9375 3.167 9.0965 1 11.7495 1C14.4025 1 16.5615 3.167 16.5615 5.831V10.519C16.5615 13.182 14.4025 15.349 11.7495 15.349Z" fill="black"/>
<g id="Group 7">
<mask id="mask0_33437_4444" style="mask-type:luminance" maskUnits="userSpaceOnUse" x="3" y="9" width="18" height="11">
<path id="Clip 6" fill-rule="evenodd" clip-rule="evenodd" d="M3 9.8009H20.4995V19.3389H3V9.8009Z" fill="white"/>
</mask>
<g mask="url(#mask0_33437_4444)">
<path id="Fill 5" fill-rule="evenodd" clip-rule="evenodd" d="M11.7495 19.3389C6.92451 19.3389 2.99951 15.3969 2.99951 10.5509C2.99951 10.1369 3.33551 9.8009 3.74951 9.8009C4.16451 9.8009 4.49951 10.1369 4.49951 10.5509C4.49951 14.5689 7.75151 17.8389 11.7495 17.8389C15.7475 17.8389 18.9995 14.5689 18.9995 10.5509C18.9995 10.1369 19.3355 9.8009 19.7495 9.8009C20.1645 9.8009 20.4995 10.1369 20.4995 10.5509C20.4995 15.3969 16.5745 19.3389 11.7495 19.3389Z" fill="black"/>
</g>
</g>
</g>
</g>
</svg>
