<svg width="24" height="24" viewBox="0 0 24 24" fill="none" xmlns="http://www.w3.org/2000/svg">
<g id="Iconly/Light-Outline/Work">
<g id="Work">
<path id="Fill 1" fill-rule="evenodd" clip-rule="evenodd" d="M11.9951 17.4268C11.5811 17.4268 11.2451 17.0908 11.2451 16.6768V14.1398C11.2451 13.7258 11.5811 13.3898 11.9951 13.3898C12.4091 13.3898 12.7451 13.7258 12.7451 14.1398V16.6768C12.7451 17.0908 12.4091 17.4268 11.9951 17.4268Z" fill="black"/>
<g id="Group 5">
<mask id="mask0_33437_4748" style="mask-type:luminance" maskUnits="userSpaceOnUse" x="2" y="4" width="20" height="11">
<path id="Clip 4" fill-rule="evenodd" clip-rule="evenodd" d="M2.00024 4.58008H21.99V14.8911H2.00024V4.58008Z" fill="white"/>
</mask>
<g mask="url(#mask0_33437_4748)">
<path id="Fill 3" fill-rule="evenodd" clip-rule="evenodd" d="M3.50024 11.3931C5.87624 12.6841 8.87224 13.3911 11.9902 13.3911C15.1142 13.3911 18.1132 12.6841 20.4902 11.3931V8.39108C20.4902 7.11608 19.4592 6.08008 18.1902 6.08008H5.81024C4.53624 6.08008 3.50024 7.11208 3.50024 8.38108V11.3931ZM11.9902 14.8911C8.44524 14.8911 5.02824 14.0331 2.37124 12.4771C2.14124 12.3431 2.00024 12.0971 2.00024 11.8301V8.38108C2.00024 6.28508 3.70924 4.58008 5.81024 4.58008H18.1902C20.2862 4.58008 21.9902 6.28908 21.9902 8.39108V11.8301C21.9902 12.0971 21.8482 12.3431 21.6192 12.4771C18.9622 14.0331 15.5422 14.8911 11.9902 14.8911Z" fill="black"/>
</g>
</g>
<g id="Group 8">
<mask id="mask1_33437_4748" style="mask-type:luminance" maskUnits="userSpaceOnUse" x="7" y="2" width="10" height="5">
<path id="Clip 7" fill-rule="evenodd" clip-rule="evenodd" d="M7.74512 2.00024H16.2451V6.07614H7.74512V2.00024Z" fill="white"/>
</mask>
<g mask="url(#mask1_33437_4748)">
<path id="Fill 6" fill-rule="evenodd" clip-rule="evenodd" d="M15.4951 6.07612C15.0811 6.07612 14.7451 5.74012 14.7451 5.32612V4.96012C14.7451 4.15512 14.0901 3.50012 13.2851 3.50012H10.7051C9.90012 3.50012 9.24512 4.15512 9.24512 4.96012V5.32612C9.24512 5.74012 8.90912 6.07612 8.49512 6.07612C8.08112 6.07612 7.74512 5.74012 7.74512 5.32612V4.96012C7.74512 3.32812 9.07312 2.00012 10.7051 2.00012H13.2851C14.9171 2.00012 16.2451 3.32812 16.2451 4.96012V5.32612C16.2451 5.74012 15.9091 6.07612 15.4951 6.07612Z" fill="black"/>
</g>
</g>
<path id="Fill 9" fill-rule="evenodd" clip-rule="evenodd" d="M17.7949 21.7402H6.19494C4.11994 21.7402 2.37294 20.1192 2.21594 18.0492L2.02594 15.5402C1.99494 15.1272 2.30494 14.7662 2.71794 14.7352C3.13294 14.7202 3.49094 15.0132 3.52294 15.4272L3.71194 17.9352C3.80994 19.2272 4.89994 20.2402 6.19494 20.2402H17.7949C19.0899 20.2402 20.1809 19.2272 20.2779 17.9352L20.4679 15.4272C20.4999 15.0132 20.8669 14.7192 21.2729 14.7352C21.6859 14.7662 21.9949 15.1272 21.9639 15.5402L21.7739 18.0492C21.6169 20.1192 19.8699 21.7402 17.7949 21.7402Z" fill="black"/>
</g>
</g>
</svg>
