<svg width="15" height="10" viewBox="0 0 15 10" fill="none" xmlns="http://www.w3.org/2000/svg">
<path d="M14.0799 4.79607C14.0799 4.9728 13.9366 5.11607 13.7599 5.11607H1.09241L5.02617 9.04983C5.10936 9.13017 5.14272 9.24915 5.11343 9.36103C5.08415 9.47291 4.99678 9.56029 4.88489 9.58957C4.77301 9.61886 4.65404 9.58549 4.57369 9.50231L0.0936917 5.02231C-0.0312306 4.89735 -0.0312306 4.69479 0.0936917 4.56983L4.57369 0.0898278C4.69925 -0.0314433 4.89884 -0.0297089 5.02227 0.0937259C5.14571 0.217161 5.14744 0.416747 5.02617 0.542308L1.09241 4.47607H13.7599C13.9366 4.4761 14.0799 4.61936 14.0799 4.79607Z" fill="#232323"/>
</svg>
