<svg width="30" height="37" viewBox="0 0 30 37" fill="none" xmlns="http://www.w3.org/2000/svg">
<g clip-path="url(#clip0_42_1309)">
<path d="M21.25 4.54544H26.25C26.5815 4.54544 26.8995 4.70507 27.1339 4.98922C27.3683 5.27336 27.5 5.65875 27.5 6.06059V30.303C27.5 30.7049 27.3683 31.0902 27.1339 31.3744C26.8995 31.6585 26.5815 31.8182 26.25 31.8182H3.75C3.41848 31.8182 3.10054 31.6585 2.86612 31.3744C2.6317 31.0902 2.5 30.7049 2.5 30.303V6.06059C2.5 5.65875 2.6317 5.27336 2.86612 4.98922C3.10054 4.70507 3.41848 4.54544 3.75 4.54544H8.75V1.51514H11.25V4.54544H18.75V1.51514H21.25V4.54544ZM18.75 7.57574H11.25V10.606H8.75V7.57574H5V13.6363H25V7.57574H21.25V10.606H18.75V7.57574ZM25 16.6667H5V28.7879H25V16.6667Z" fill="#FE9C5E"/>
</g>
<defs>
<clipPath id="clip0_42_1309">
<rect width="30" height="36.3636" fill="white"/>
</clipPath>
</defs>
</svg>
