<svg width="30" height="37" viewBox="0 0 30 37" fill="none" xmlns="http://www.w3.org/2000/svg">
<g clip-path="url(#clip0_42_1277)">
<path d="M6.25 3.03027H23.75C24.0815 3.03027 24.3995 3.1899 24.6339 3.47405C24.8683 3.7582 25 4.14358 25 4.54543V33.55C25.0001 33.6854 24.9703 33.8185 24.9136 33.9352C24.8569 34.052 24.7755 34.1481 24.6777 34.2137C24.5799 34.2793 24.4694 34.312 24.3577 34.3082C24.246 34.3045 24.1371 34.2645 24.0425 34.1924L15 27.3182L5.9575 34.1909C5.86296 34.2629 5.75423 34.3029 5.64263 34.3067C5.53102 34.3105 5.42061 34.278 5.32287 34.2126C5.22513 34.1472 5.14363 34.0512 5.08685 33.9347C5.03007 33.8181 5.00008 33.6853 5 33.55V4.54543C5 4.14358 5.1317 3.7582 5.36612 3.47405C5.60054 3.1899 5.91848 3.03027 6.25 3.03027ZM22.5 6.06058H7.5V29.4424L15 23.7439L22.5 29.4424V6.06058Z" fill="#3EC8BC"/>
</g>
<defs>
<clipPath id="clip0_42_1277">
<rect width="30" height="36.3636" fill="white"/>
</clipPath>
</defs>
</svg>
