<svg width="32" height="32" viewBox="0 0 32 32" fill="none" xmlns="http://www.w3.org/2000/svg">
<rect width="32" height="32" rx="14" fill="#FFFBE6"/>
<rect width="32" height="32" rx="14" fill="#006B56" fill-opacity="0.11"/>
<path d="M23.0799 15.7961C23.0799 15.9728 22.9366 16.1161 22.7599 16.1161H10.0924L14.0262 20.0498C14.1094 20.1302 14.1427 20.2491 14.1134 20.361C14.0841 20.4729 13.9968 20.5603 13.8849 20.5896C13.773 20.6189 13.654 20.5855 13.5737 20.5023L9.09369 16.0223C8.96877 15.8973 8.96877 15.6948 9.09369 15.5698L13.5737 11.0898C13.6993 10.9686 13.8988 10.9703 14.0223 11.0937C14.1457 11.2172 14.1474 11.4167 14.0262 11.5423L10.0924 15.4761H22.7599C22.9366 15.4761 23.0799 15.6194 23.0799 15.7961Z" fill="#232323"/>
</svg>
