<svg width="30" height="37" viewBox="0 0 30 37" fill="none" xmlns="http://www.w3.org/2000/svg">
<g clip-path="url(#clip0_42_1302)">
<path d="M27.5 31.8181H2.5V28.7878H3.75V6.06056C3.75 5.65872 3.8817 5.27333 4.11612 4.98919C4.35054 4.70504 4.66848 4.54541 5 4.54541H22.5C22.8315 4.54541 23.1495 4.70504 23.3839 4.98919C23.6183 5.27333 23.75 5.65872 23.75 6.06056V13.6363H26.25V28.7878H27.5V31.8181ZM21.25 28.7878H23.75V16.6666H16.25V28.7878H18.75V19.6969H21.25V28.7878ZM21.25 13.6363V7.57571H6.25V28.7878H13.75V13.6363H21.25ZM8.75 16.6666H11.25V19.6969H8.75V16.6666ZM8.75 22.7272H11.25V25.7575H8.75V22.7272ZM8.75 10.606H11.25V13.6363H8.75V10.606Z" fill="#FF4760"/>
</g>
<defs>
<clipPath id="clip0_42_1302">
<rect width="30" height="36.3636" fill="white"/>
</clipPath>
</defs>
</svg>
