<svg width="13" height="17" viewBox="0 0 13 17" fill="none" xmlns="http://www.w3.org/2000/svg">
<path fill-rule="evenodd" clip-rule="evenodd" d="M0 5.86933C0 2.63298 2.70806 0 6.03673 0C9.36537 0 12.0734 2.63298 12.0735 5.86933C12.0735 9.88575 6.67118 15.7821 6.44117 16.0311C6.22552 16.2647 5.84833 16.2651 5.63229 16.0311C5.40228 15.7821 0 9.88575 0 5.86933ZM2.99953 5.86933C2.99953 7.49764 4.36199 8.82236 6.03673 8.82236C7.71143 8.82236 9.0739 7.49767 9.0739 5.86936C9.0739 4.24106 7.71143 2.91634 6.03673 2.91634C4.36203 2.91634 2.99953 4.24103 2.99953 5.86933Z" fill="#F77777"/>
</svg>
