<svg width="24" height="24" viewBox="0 0 24 24" fill="none" xmlns="http://www.w3.org/2000/svg">
<g clip-path="url(#clip0_202_48086)">
<path d="M10.478 11.632L5.968 4.55999L7.899 4.04199L14.85 10.462L20.112 9.05199C20.4963 8.94909 20.9057 9.00306 21.2502 9.20204C21.5947 9.40101 21.8461 9.72869 21.949 10.113C22.0519 10.4973 21.9979 10.9067 21.799 11.2512C21.6 11.5957 21.2723 11.8471 20.888 11.95L5.916 15.96L5.14 13.062L5.381 12.997L7.848 15.442L5.222 16.146C5.00666 16.2037 4.77821 16.1879 4.57293 16.1009C4.36765 16.0139 4.19732 15.8608 4.089 15.666L1.466 10.94L2.915 10.552L5.381 12.997L10.478 11.631V11.632ZM4 19H20V21H4V19Z" fill="#181A25"/>
</g>
<defs>
<clipPath id="clip0_202_48086">
<rect width="24" height="24" fill="white"/>
</clipPath>
</defs>
</svg>
