<svg width="16" height="16" viewBox="0 0 16 16" fill="none" xmlns="http://www.w3.org/2000/svg">
<path fill-rule="evenodd" clip-rule="evenodd" d="M10.6151 10.6117L15.1017 15.1919C15.2181 15.315 15.2165 15.5106 15.098 15.6315C14.9795 15.7525 14.7879 15.7542 14.6673 15.6353L10.1807 11.0551C7.81993 13.2247 4.19565 13.0791 2.00916 10.7268C-0.177322 8.37458 -0.129773 4.67224 2.11637 2.3793C4.36251 0.0863624 7.9893 0.0378224 10.2936 2.26986C12.5978 4.5019 12.7404 8.20169 10.6151 10.6117ZM1.06051 6.63283C1.06051 9.57717 3.39866 11.964 6.28291 11.964C9.16576 11.9606 11.5019 9.57574 11.5053 6.63283C11.5053 3.68849 9.16716 1.30163 6.28291 1.30163C3.39866 1.30163 1.06051 3.68849 1.06051 6.63283Z" fill="black"/>
</svg>
