<svg width="17" height="17" viewBox="0 0 17 17" fill="none" xmlns="http://www.w3.org/2000/svg">
<path d="M16.1056 6.13716C15.9999 5.79473 15.7098 5.55151 15.3667 5.51913L10.7061 5.07592L8.86313 0.558333C8.72724 0.227252 8.41776 0.0129395 8.07391 0.0129395C7.73006 0.0129395 7.42058 0.227252 7.28469 0.559107L5.44174 5.07592L0.780347 5.51913C0.437851 5.55229 0.148577 5.79473 0.0422556 6.13716C-0.0640661 6.4796 0.0341244 6.85519 0.293214 7.09196L3.81612 10.3277L2.7773 15.1201C2.70128 15.4725 2.83187 15.8367 3.11104 16.048C3.2611 16.1616 3.43666 16.2194 3.6137 16.2194C3.76635 16.2194 3.91776 16.1763 4.05365 16.0911L8.07391 13.5747L12.0927 16.0911C12.3868 16.2764 12.7575 16.2595 13.036 16.048C13.3153 15.8361 13.4458 15.4717 13.3698 15.1201L12.331 10.3277L15.8539 7.0926C16.113 6.85519 16.2119 6.48024 16.1056 6.13716Z" fill="#FFC107"/>
</svg>
